<svg width="20" height="20" viewBox="0 0 20 20" fill="none" xmlns="http://www.w3.org/2000/svg">
<mask id="mask0_30_312" style="mask-type:alpha" maskUnits="userSpaceOnUse" x="0" y="0" width="20" height="20">
<rect width="20" height="20" fill="#D9D9D9"/>
</mask>
<g mask="url(#mask0_30_312)">
<path d="M13.4793 10.8333H4.16683C3.93072 10.8333 3.7328 10.7534 3.57308 10.5937C3.41336 10.434 3.3335 10.2361 3.3335 9.99997C3.3335 9.76386 3.41336 9.56594 3.57308 9.40622C3.7328 9.2465 3.93072 9.16664 4.16683 9.16664H13.4793L9.396 5.0833C9.22933 4.91664 9.14947 4.72219 9.15641 4.49997C9.16336 4.27775 9.25016 4.0833 9.41683 3.91664C9.5835 3.76386 9.77794 3.684 10.0002 3.67705C10.2224 3.67011 10.4168 3.74997 10.5835 3.91664L16.0835 9.41664C16.1668 9.49997 16.2259 9.59025 16.2606 9.68747C16.2953 9.78469 16.3127 9.88886 16.3127 9.99997C16.3127 10.1111 16.2953 10.2152 16.2606 10.3125C16.2259 10.4097 16.1668 10.5 16.0835 10.5833L10.5835 16.0833C10.4307 16.2361 10.2397 16.3125 10.0106 16.3125C9.78141 16.3125 9.5835 16.2361 9.41683 16.0833C9.25016 15.9166 9.16683 15.7187 9.16683 15.4896C9.16683 15.2604 9.25016 15.0625 9.41683 14.8958L13.4793 10.8333Z" fill="white"/>
</g>
</svg>
