<svg xmlns="http://www.w3.org/2000/svg" width="264.906" height="25.656" viewBox="0 0 264.906 25.656">
  <defs>
    <style>
      .cls-1 {
        fill: #333;
        fill-rule: evenodd;
      }
    </style>
  </defs>
  <path id="hdr-logo01.svg" class="cls-1" d="M200.2,62.737h4.635V54.586h7.272V51.1h-7.272V46.569h7.831V42.813H200.2V62.737Zm28.422-19.1a15.25,15.25,0,0,0-6.02-1.092,7.775,7.775,0,0,0-5.115,1.492,5,5,0,0,0-1.784,4.049,5.571,5.571,0,0,0,1.531,3.969,11.6,11.6,0,0,0,4.968,2.717,4.048,4.048,0,0,1,1.8.972,2.118,2.118,0,0,1,.52,1.478,1.879,1.879,0,0,1-.746,1.6,3.66,3.66,0,0,1-2.211.559,9.4,9.4,0,0,1-5.354-1.731v3.942A11.2,11.2,0,0,0,221.855,63q7.379,0,7.378-5.86a5.591,5.591,0,0,0-1.451-4.009,12.174,12.174,0,0,0-5.235-2.677q-2.184-.692-2.184-2.371,0-1.971,2.531-1.971a12.606,12.606,0,0,1,5.727,1.438V43.639Zm9.562,19.1V42.813H233.1V62.737h5.087Zm6.469-22.9-2.165,2.818a16.188,16.188,0,0,1,4.33,2.791l2.322-3.1a16.588,16.588,0,0,0-4.487-2.5h0Zm-1.226,7.122-2.113,2.87a14.754,14.754,0,0,1,4.252,2.661l2.3-3.131a15.9,15.9,0,0,0-4.435-2.4h0Zm5.191,9.261-3.1-2.139a73.473,73.473,0,0,1-3.783,8.661l3.522,2.113q1.878-4.226,3.365-8.635h0Zm10.7-.235h1.956q-0.025.47-.1,1.252t-0.078.809h-2.009q0.13-1.1.235-2.061h0Zm-3.314,0q-0.1.966-.234,2.061h-1.774l0.26-2.061H256Zm0.47-5.348q-0.027.313-.078,0.926t-0.079.926H254.67l0.209-1.852h1.591Zm3.157,1.852,0.13-1.852h1.8l-0.078,1.852h-1.852Zm7.252,0H265q0.078-1.644.156-3.6,0.026-.417.053-1.539H252.818q0.495-.783.808-1.357h12.653V42.552h-11.14q0.574-1.669.679-2.061l-3.809-.835a16,16,0,0,1-4.174,7.8,15.629,15.629,0,0,1,3.261,2.218c0.173-.174.3-0.313,0.391-0.418q-0.052.626-.209,1.826T251.1,52.491h-2.635v3.5h2.191q-0.392,2.922-1.043,6.418l3.678,0.235,0.235-1.3h6.939a0.453,0.453,0,0,1-.13.235,1.163,1.163,0,0,1-.965.47q-0.73,0-2.5-.13a6.7,6.7,0,0,1,.913,3.131,15.791,15.791,0,0,0,3.392-.1,3.315,3.315,0,0,0,2.3-1.383,5.627,5.627,0,0,0,.756-2.218h2.3V58.048h-1.852q0.078-.991.156-2.061h2.061v-3.5Zm4.9-12.731L269.671,42.6a27.057,27.057,0,0,1,2.791,1.448,11.959,11.959,0,0,1,2.165,1.552l2.27-3.157a16.683,16.683,0,0,0-5.113-2.687h0Zm-1.774,7.174L268,49.857a18.471,18.471,0,0,1,4.983,2.922l2.191-3.209a19.038,19.038,0,0,0-5.165-2.635h0Zm16.748,9.079V53.848h5.088v-3.6h-5.088V48.161h6.183V44.535H290.15q0.887-1.434,2.035-3.652l-4.2-1.226a20.045,20.045,0,0,1-1.905,4.461l1.252,0.418h-4.748l1.148-.5a13.639,13.639,0,0,0-2.4-4.279l-3.522,1.409a16.139,16.139,0,0,1,1.8,3.365h-2.661v3.626h5.792v2.087h-4.879v3.6h4.879v2.165h-6.314v0.13l-2.608-2.27a74.171,74.171,0,0,1-4.879,8.348l3.339,2.531q2.452-4.2,4.148-7.722v2.687h6.314v5.374h4.017V59.718h6.627v-3.7h-6.627Zm26.31-12.188a1.31,1.31,0,0,1-.946.373,1.275,1.275,0,0,1-1.305-1.305,1.3,1.3,0,0,1,.373-0.959,1.265,1.265,0,0,1,.932-0.373,1.312,1.312,0,0,1,.946.373,1.277,1.277,0,0,1,.386.959A1.244,1.244,0,0,1,313.068,43.825Zm-3.876-.932H295.714v4.262H307.94a15.273,15.273,0,0,1-1.118,5.607,9.6,9.6,0,0,1-2.544,3.5,11.048,11.048,0,0,1-3.13,1.9,17.9,17.9,0,0,1-3.7.919V63.35a7.488,7.488,0,0,0,1.052-.12,17.1,17.1,0,0,0,2.65-.666,18.92,18.92,0,0,0,3.436-1.532A13.376,13.376,0,0,0,308.02,58.2a16.347,16.347,0,0,0,2.8-4.648,18.185,18.185,0,0,0,1.225-6.739V45.823h0.08a2.87,2.87,0,0,0,2.091-.852,2.806,2.806,0,0,0,.866-2.078,2.957,2.957,0,0,0-5.034-2.1,2.914,2.914,0,0,0-.853,2.1h0Zm19.152,10.255a6.942,6.942,0,0,1-1.558,2.957,8.363,8.363,0,0,1-2.491,1.864,14.8,14.8,0,0,1-2.717,1.039,16.9,16.9,0,0,1-2.157.453,5.205,5.205,0,0,1-.879.08v4.289q0.053,0,1.092-.133t2.717-.519a17.668,17.668,0,0,0,3.543-1.265,15.356,15.356,0,0,0,3.675-2.5,10.639,10.639,0,0,0,2.8-4.182,16.792,16.792,0,0,0,.986-6.047H316.091v3.969h12.253Zm3.836-6.473V42.706H316.837v3.969H332.18ZM346.91,47.1a24.413,24.413,0,0,1-2.983,5.514,28.75,28.75,0,0,1-3.476,3.862,18.338,18.338,0,0,1-4.169,2.877v4.768c0.017,0,.32-0.138.906-0.413a23.153,23.153,0,0,0,2.317-1.319,25.512,25.512,0,0,0,3.13-2.384,28.426,28.426,0,0,0,3.316-3.476,33.547,33.547,0,0,0,2.584,3.076,31.431,31.431,0,0,0,2.5,2.384q1.172,0.986,2.61,2.024V58.928q-0.027-.026-0.892-0.732a19.842,19.842,0,0,1-2.051-2.011q-1.187-1.3-2.384-2.877a33.446,33.446,0,0,0,2.544-4.768,25.483,25.483,0,0,0,1.718-5.727H337.267V47.1h9.643Zm16.328,6.952a5.791,5.791,0,0,1-1.2,2.93,6.466,6.466,0,0,1-2.131,1.7,10.283,10.283,0,0,1-2.105.8,5.191,5.191,0,0,1-.959.187V64.1q0.027,0,1-.226a18.177,18.177,0,0,0,2.451-.812,13.166,13.166,0,0,0,2.983-1.7,12.558,12.558,0,0,0,2.757-2.9,8.929,8.929,0,0,0,1.492-4.4h6.126V49.9h-6.1v-3.01h5.328V42.733H356.925v4.155h6.393V49.9H356.18v4.155h7.058ZM376.157,45.9l1.545,9.136h2.8L378.9,45.9h-2.744Zm4.448,0,1.545,9.136H385L383.349,45.9h-2.744Zm2.6,16.009a14.767,14.767,0,0,0,3.7-3.489,17.021,17.021,0,0,0,2.317-4.2,26.2,26.2,0,0,0,1.186-4.049,36.831,36.831,0,0,0,.559-4.249H387.4a11.634,11.634,0,0,1-.133,1.345,28.8,28.8,0,0,1-.64,3.236,23.533,23.533,0,0,1-1.4,4,10.091,10.091,0,0,1-2.744,3.6,9.467,9.467,0,0,1-4.621,2.024v3.729A13.061,13.061,0,0,0,383.2,61.912Zm14.876-20.217a15.18,15.18,0,0,1-1.105,3.662,18.742,18.742,0,0,1-1.452,2.6,8.371,8.371,0,0,1-1.318,1.585,6.955,6.955,0,0,1-.6.493v5.141a5.635,5.635,0,0,0,1.026-.666,19.77,19.77,0,0,0,2.437-2.184,24.57,24.57,0,0,0,3.01-3.889h6.153a14.143,14.143,0,0,1-1.345,4.874,11.967,11.967,0,0,1-2.624,3.383,13.553,13.553,0,0,1-3.116,2.184,15.365,15.365,0,0,1-2.518,1,6.963,6.963,0,0,1-1.052.253v4.315a6.635,6.635,0,0,0,1.012-.2,18.926,18.926,0,0,0,2.544-.839,25.313,25.313,0,0,0,3.357-1.651A17.4,17.4,0,0,0,406,59.008a14.819,14.819,0,0,0,2.943-4.355,18.114,18.114,0,0,0,1.518-6.113V44.464H401.7q0.159-.639.319-1.332t0.267-1.438h-4.209Zm19.671,16.8V52.518h1.721v5.974H417.75Zm5.243-17.636h-9.939v3.5h2.556a20.688,20.688,0,0,1-3.182,8.166,22.8,22.8,0,0,1,.743,2.4,16.472,16.472,0,0,1,.483,2.322,13.878,13.878,0,0,0,.913-1.148v7.7h3.183v-1.9h5.009V49.126h-4.827a45.25,45.25,0,0,0,1.279-4.774h3.782v-3.5Zm6.47,3.7h2.244v5.948h-2.244V44.561Zm5.922,5.948V44.561h2.14v-3.6H424.167v3.6h1.644v5.948h-2.322v3.652h2.244q-0.418,6.131-2.922,8.9a11.509,11.509,0,0,1,1.513,1.03,12.834,12.834,0,0,1,1.383,1.213q3.26-3.5,3.678-11.14h2.322V65.066h3.678v-10.9h2.661V50.509h-2.661Zm24.51-1.657a0.561,0.561,0,0,1-.561.3h-1.513a1.029,1.029,0,0,1-.652-0.13,1.156,1.156,0,0,1-.13-0.7V45.369h2.791v2.113h0.287A4.764,4.764,0,0,1,459.9,48.852Zm-6.691-.483a5.036,5.036,0,0,0,.8,3.287q0.8,0.887,3.2.887h2.557a3.617,3.617,0,0,0,2.609-.8,5.179,5.179,0,0,0,1.1-2.987,9.754,9.754,0,0,1-3.235-1.278h3.731V41.9h-9.783V39.656h-4.018V41.9h-9.6v5.87h3.887v-2.4h2.348a5.577,5.577,0,0,1-.718,2.152A4.547,4.547,0,0,1,444.086,49a15.727,15.727,0,0,1-4.161,1.07,8.619,8.619,0,0,1,1.161,1.513,7.966,7.966,0,0,1,.821,1.644,21.623,21.623,0,0,0,4.253-1.213,7.7,7.7,0,0,0,2.661-1.748,6.861,6.861,0,0,0,1.409-2.152,11.6,11.6,0,0,0,.652-2.739H453.2v3Zm6.078,12.522a2.162,2.162,0,0,1-.1-0.861V53.848h-6.887V51.109H448.4v2.739h-6.678v3.574h6q-1.7,3.131-8.166,4.618a16.834,16.834,0,0,1,2.583,3.183q8.452-2.061,9.862-7.8h3.078v2.661a6.216,6.216,0,0,0,.835,3.77,3.758,3.758,0,0,0,3.052,1.03h2.165a3.208,3.208,0,0,0,2.831-1.252,10.077,10.077,0,0,0,1.135-4.644,9.215,9.215,0,0,1-3.679-1.67,25.91,25.91,0,0,1-.208,3.091,0.636,0.636,0,0,1-.5.665h-0.965A0.5,0.5,0,0,1,459.282,60.892Z" transform="translate(-200.188 -39.656)"/>
</svg>
