<svg id="ftr-logo.svg" xmlns="http://www.w3.org/2000/svg" width="336.434" height="56.38" viewBox="0 0 336.434 56.38">
  <defs>
    <style>
      .cls-1 {
        fill: #333;
        fill-rule: evenodd;
      }
    </style>
  </defs>
  <path id="東京大学_-日本財団_のコピー_2" data-name="東京大学 -日本財団 のコピー 2" class="cls-1" d="M908.809,3464.3v0.79h-2.744v-0.79h2.744Zm0-2.67v0.77h-2.744v-0.77h2.744Zm5.788,0.77H911.74v-0.77H914.6v0.77Zm-2.857,2.69v-0.79H914.6v0.79H911.74Zm5.733-5.51H911.74v-0.8H919v-2.62H911.74v-1.46h-2.931v1.46h-7.067v2.62h7.067v0.8h-5.488v7.58h3.5a16.479,16.479,0,0,1-5.675,3.31,10.768,10.768,0,0,1,1.917,2.35,17.078,17.078,0,0,0,5.751-4.05v4.21h2.931v-4.32a17.6,17.6,0,0,0,5.864,4.19,10.17,10.17,0,0,1,2.011-2.44,16.863,16.863,0,0,1-5.807-3.25h3.665v-7.58Zm14.993-3.23v-1.65h-3.007v1.65h-7.047v2.67h17.177v-2.67h-7.123Zm-8.945,12.68a10.254,10.254,0,0,1-1.786,1.66,14.232,14.232,0,0,1,2.293,1.64,17.308,17.308,0,0,0,3.7-4.31l-2.856-.9A11.151,11.151,0,0,1,923.521,3469.03Zm11.144-6.53v1.69H927.3v-1.69h7.367Zm2.97-2.39H924.517v6.47h5v3.49a0.268,0.268,0,0,1-.085.23,0.775,0.775,0,0,1-.329.05q-0.639.045-2.311-.03a9.3,9.3,0,0,1,.864,2.66,11.077,11.077,0,0,0,3.59-.39,1.72,1.72,0,0,0,.958-0.84,3.789,3.789,0,0,0,.263-1.58v-3.59h5.169v-6.47Zm-0.339,12.42,2.782-1.39a30.569,30.569,0,0,0-3.4-4.06l-2.574,1.22a26.033,26.033,0,0,1,3.194,4.23h0Zm23.057-12.83h-7.386c0.1-1.12.163-2.78,0.188-5h-3.082c-0.026,2.59-.069,4.26-0.132,5H943.1v2.89h6.371a11.108,11.108,0,0,1-6.747,7.93,7.922,7.922,0,0,1,2.1,2.39,13.281,13.281,0,0,0,6.935-7.52,16.825,16.825,0,0,0,2.847,4.52,12.428,12.428,0,0,0,4.144,3,10.354,10.354,0,0,1,2.068-2.65q-4.924-1.92-7.01-7.67h6.54v-2.89Zm17.832,0.43v2.5h2.762v-4.94h-2.33q0.564-.72,1.447-1.98l-3.063-.86a14.558,14.558,0,0,1-1.466,2.84h-2.65l1.052-.4a9.351,9.351,0,0,0-1.484-2.7l-2.481.92a12.4,12.4,0,0,1,1.09,2.18h-2.537l0.751-.34a8.8,8.8,0,0,0-1.71-2.46l-2.387,1.05a12.721,12.721,0,0,1,1.165,1.75H963.9v4.94h2.631v-2.5h11.653Zm-3.7,5.49a18.845,18.845,0,0,0,3.458-3.09l-1.747-1.33-0.6.13h-8.269v2.41h5.807c-0.288.25-.6,0.49-0.94,0.73h-1.221v1.15h-7.217v2.55h7.217v1.84a0.313,0.313,0,0,1-.1.27,0.707,0.707,0,0,1-.385.07c-1.278,0-2.274-.02-2.988-0.05a9.33,9.33,0,0,1,1.109,2.7,12.429,12.429,0,0,0,3.89-.41,1.969,1.969,0,0,0,1.053-.86,3.542,3.542,0,0,0,.3-1.62v-1.94H981.1v-2.55h-6.616Zm24.462,1.2v-2.46h-6.653v2.46h6.653Zm8.646-1.92h7.98v3.76h-7.98v-3.76Zm7.98-2.76h-7.98v-3.53h7.98v3.53Zm-10.88,10.62h2.9v-1.28h7.98v1.28h3.03v-16.97h-13.91v16.97Zm29.09-8.98a22.406,22.406,0,0,0,2.33,3.3h-2.33v-3.3Zm-2.99.05v3.25h-2.25a23.325,23.325,0,0,0,2.25-3.25h0Zm10.11-5.56h-7.12v-3.57h-2.99v3.57h-7.06v2.84h5.45a18.99,18.99,0,0,1-2.74,3.95,14.108,14.108,0,0,1-3.52,2.89,13.13,13.13,0,0,1,2.05,2.33,16.6,16.6,0,0,0,2.78-2.33v1.97h3.04v3.06h2.99v-3.06h2.9v-2.2a15.647,15.647,0,0,0,2.95,2.48,11.188,11.188,0,0,1,1.01-1.35,9.316,9.316,0,0,1,1.17-1.18,14.829,14.829,0,0,1-3.58-2.79,18.173,18.173,0,0,1-2.8-3.77h5.47v-2.84Zm4.13,11.67a7.577,7.577,0,0,1-1.42,1.5,11.756,11.756,0,0,1,2.23,1.58,11.462,11.462,0,0,0,2.88-4.28l-2.67-.68A8.408,8.408,0,0,1,1045.03,3469.94Zm2.52-10.92v-1.37h2.05v1.37h-2.05Zm0,3.42v-1.39h2.05v1.39h-2.05Zm0,3.42v-1.39h2.05v1.39h-2.05Zm12.73-6.63v-4.46h-2.77v4.46h-4.73v2.57h3.78a19.568,19.568,0,0,1-1.87,3.31,13.842,13.842,0,0,1-2.34,2.59v-12.25h-7.41v12.61h5.83l-2.15.94a12.193,12.193,0,0,1,2.05,3.31l2.35-1.17a12.438,12.438,0,0,0-2.12-3.08h1.31a10.205,10.205,0,0,1,1.73,1.92,16.712,16.712,0,0,0,3.57-4.66v4.6a0.352,0.352,0,0,1-.39.4c-0.71,0-1.33-.02-1.86-0.04a8,8,0,0,1,.96,2.72,6.157,6.157,0,0,0,3.08-.56,1.8,1.8,0,0,0,.76-0.92,4.791,4.791,0,0,0,.22-1.58v-8.14h1.86v-2.57h-1.86Zm10.87,7.48,2.05-1.15a9.9,9.9,0,0,0-2.01-2.95l-1.9,1.07a9.986,9.986,0,0,1,1.86,3.03h0Zm5.64-6.58v-1.6h-2.57v1.6h-5.53v2.35h5.53v4.21a0.3,0.3,0,0,1-.36.32c-0.78,0-1.4-.01-1.86-0.04a8.824,8.824,0,0,1,.71,2.33,8.334,8.334,0,0,0,3.11-.39,1.5,1.5,0,0,0,.77-0.76,3.858,3.858,0,0,0,.2-1.39v-4.28h1.86v-2.35h-1.86Zm-8.66-1.96h11.01v11.38h-11.01v-11.38Zm-2.78,14.78h2.78v-0.74h11.01v0.74h2.92v-17.46h-16.71v17.46Z" transform="translate(-901.156 -3454.59)"/>
  <path id="FSI_海洋ゴミ対策プロジェクト_のコピー" data-name="FSI 海洋ゴミ対策プロジェクト のコピー" class="cls-1" d="M902.724,3508.45h4.5v-7.91h7.055v-3.38H907.22v-4.4h7.6v-3.64H902.724v19.33Zm29.48-18.53a14.727,14.727,0,0,0-5.84-1.06,7.511,7.511,0,0,0-4.962,1.45,4.84,4.84,0,0,0-1.731,3.93,5.411,5.411,0,0,0,1.486,3.85,11.194,11.194,0,0,0,4.819,2.63,3.858,3.858,0,0,1,1.745.95,2.034,2.034,0,0,1,.5,1.43,1.823,1.823,0,0,1-.724,1.55,3.561,3.561,0,0,1-2.145.54,9.125,9.125,0,0,1-5.194-1.68v3.83a10.9,10.9,0,0,0,5.478,1.37q7.158,0,7.159-5.69a5.426,5.426,0,0,0-1.409-3.89,11.8,11.8,0,0,0-5.078-2.59c-1.412-.45-2.119-1.22-2.119-2.3q0-1.92,2.455-1.92a12.237,12.237,0,0,1,5.556,1.4v-3.8Zm11.081,18.53v-19.33h-4.936v19.33h4.936Zm17.407-22.48-2.145,2.79a15.993,15.993,0,0,1,4.29,2.76l2.3-3.07a16.083,16.083,0,0,0-4.445-2.48h0Zm-1.214,7.05-2.094,2.84a14.606,14.606,0,0,1,4.213,2.64l2.274-3.1a15.861,15.861,0,0,0-4.393-2.38h0Zm5.142,9.17-3.075-2.11a73.729,73.729,0,0,1-3.747,8.58l3.489,2.09q1.86-4.185,3.333-8.56h0Zm10.6-.23h1.938c-0.017.31-.051,0.73-0.1,1.24s-0.078.79-.078,0.8h-1.989q0.129-1.08.232-2.04h0Zm-3.282,0q-0.1.96-.232,2.04h-1.757l0.258-2.04h1.731Zm0.465-5.3c-0.017.21-.043,0.52-0.077,0.92s-0.061.71-.078,0.92h-1.628l0.207-1.84H972.4Zm3.127,1.84,0.13-1.84h1.783l-0.078,1.84h-1.835Zm7.184,0h-1.86c0.051-1.09.1-2.27,0.155-3.57,0.017-.27.034-0.78,0.051-1.52H968.781q0.49-.78.8-1.35h12.533v-3.41H971.081q0.567-1.65.671-2.04l-3.772-.82a15.844,15.844,0,0,1-4.135,7.72,15.241,15.241,0,0,1,3.23,2.2c0.172-.17.3-0.31,0.388-0.41q-0.053.615-.207,1.8c-0.1.8-.164,1.26-0.181,1.4h-2.61v3.46h2.171q-0.389,2.895-1.034,6.36l3.644,0.23,0.232-1.29h6.874a0.431,0.431,0,0,1-.129.23,1.156,1.156,0,0,1-.956.47c-0.483,0-1.31-.05-2.481-0.13a6.629,6.629,0,0,1,.905,3.1,16.129,16.129,0,0,0,3.359-.1,3.326,3.326,0,0,0,2.274-1.37,5.611,5.611,0,0,0,.749-2.2h2.275V3504h-1.835q0.076-.975.155-2.04h2.041v-3.46Zm6.843-12.61-2.093,2.82a25.412,25.412,0,0,1,2.765,1.43,11.631,11.631,0,0,1,2.145,1.54l2.248-3.13a16.423,16.423,0,0,0-5.065-2.66h0ZM987.8,3493l-1.99,2.89a18.434,18.434,0,0,1,4.936,2.89l2.171-3.17A18.483,18.483,0,0,0,987.8,3493h0Zm16.6,8.99v-2.15h5.03v-3.56h-5.03v-2.07h6.12v-3.59h-2.77c0.59-.95,1.26-2.16,2.02-3.62l-4.16-1.21a19.408,19.408,0,0,1-1.89,4.41l1.24,0.42h-4.7l1.14-.49a13.6,13.6,0,0,0-2.38-4.24l-3.488,1.39a15.983,15.983,0,0,1,1.783,3.34h-2.636v3.59h5.741v2.07h-4.837v3.56h4.837v2.15h-6.258v0.13l-2.584-2.25a73.158,73.158,0,0,1-4.833,8.27l3.308,2.51q2.429-4.17,4.109-7.65v2.66h6.258v5.32h3.98v-5.32h6.56v-3.67h-6.56Zm22.27-8.37v10.8h-11.68v4.05h15.91v-21.21h-1.75v2.3h-14.16v4.06h11.68Zm7.05-2.64v-3.72h-1.78v3.72h1.78Zm10.64-1.73h-6.33v4.06h6.33c1.67,0.01,3.17.09,4.49,0.22s2.75,0.33,4.3.6v-4a47.524,47.524,0,0,0-8.79-.88h0Zm-0.8,7.44h-4.91v4.06h4.91c1.67,0,3.17.07,4.48,0.2s2.76,0.35,4.31.62v-4a45.16,45.16,0,0,0-8.79-.88h0Zm1.29,7.8h-7.31v4.06h7.31a42.538,42.538,0,0,1,4.46.21c1.32,0.14,2.75.34,4.3,0.62v-4.01a47.794,47.794,0,0,0-8.76-.88h0Zm19.72-6.15q-1.56-1.8-3.16-3.54l-2.71,2.2c1.55,1.72,2.96,3.46,4.24,5.19a13.861,13.861,0,0,1-5.35,5.56,18.412,18.412,0,0,1,1.42,1.5,12.06,12.06,0,0,1,1.16,1.52,17.8,17.8,0,0,0,5.07-5.22,20.766,20.766,0,0,1,1.57,2.92l3.05-2.61a29.023,29.023,0,0,0-2.61-4.16,36.007,36.007,0,0,0,2.07-7.41l-3.72-.52a30.837,30.837,0,0,1-1.03,4.57h0Zm7.75,5.72,3.31-1.71a18.57,18.57,0,0,0-2.92-5.5l-3.08,1.52a19.161,19.161,0,0,1,2.69,5.69h0Zm8.03-12.59v-5.66h-3.82v5.66h-5.38v-1.73h-4.7v-3.88h-3.67v3.88h-4.39v3.54h11.86v1.86h6.28v11.14a0.617,0.617,0,0,1-.13.46,0.633,0.633,0,0,1-.46.13c-0.95,0-2.04-.03-3.26-0.1a13.906,13.906,0,0,1,1.19,4.16c2.46,0,4.14-.27,5.04-0.8a2.509,2.509,0,0,0,1.13-1.36,7.573,7.573,0,0,0,.31-2.47v-11.16h2.64v-3.67h-2.64Zm25.14,9.1v1.06a0.368,0.368,0,0,1-.46.36c-1.1,0-1.82-.02-2.15-0.05a16.1,16.1,0,0,1,1.04,2.32,12.65,12.65,0,0,1-2.48-1.55v-2.14h4.05Zm-9.25-8.09a13.391,13.391,0,0,0-.77-1.55h2.37c-0.03.03-.09,0.08-0.16,0.14a1.8,1.8,0,0,0-.17.14c0.46,0.28.85,0.51,1.16,0.7h-1.39v1.29h-2.98Zm-3.51.72h-3.1a25.364,25.364,0,0,0,1.88-2.27h0.05a17.8,17.8,0,0,1,1.17,2.27h0Zm8.71-.54a15.481,15.481,0,0,0,1.29-1.73h0.88c0.63,1.17,1.02,1.93,1.16,2.27h-3.33v-0.54Zm0,4.68v-0.86h9.27v-3.28h-4.91l2.48-.8a9.318,9.318,0,0,0-.75-1.47h3.67v-3.18h-6.74c0.12-.28.28-0.69,0.49-1.24l-3.75-.93a12.966,12.966,0,0,1-2.55,4.52v-2.35h-5.22c0.2-.4.38-0.78,0.54-1.16l-3.67-1.01a14.373,14.373,0,0,1-1.71,3.13,12.224,12.224,0,0,1-2.32,2.5,18.549,18.549,0,0,1,3.05,1.99h-1.99v3.28h9.95v0.86h-8.35v7.65h4.11v-4.42h4.24v1.62a14.218,14.218,0,0,1-4.47,3.04,25.344,25.344,0,0,1-6.13,1.87,13.193,13.193,0,0,1,2.38,3.24,20.977,20.977,0,0,0,8.22-4.04v4.66h4.16v-4.58a21.269,21.269,0,0,0,7.85,3.75,14.284,14.284,0,0,1,2.46-3.41,27.557,27.557,0,0,1-6.57-1.84,8.578,8.578,0,0,0,2.87-.49,2.007,2.007,0,0,0,1.11-.95,4.149,4.149,0,0,0,.31-1.81v-4.29h-8.03Zm31.17-7.24a1.284,1.284,0,0,1-.92.36,1.23,1.23,0,0,1-1.26-1.26,1.259,1.259,0,0,1,.36-0.93,1.229,1.229,0,0,1,.9-0.37,1.292,1.292,0,0,1,.92.37,1.228,1.228,0,0,1,.37.93A1.192,1.192,0,0,1,1132.6,3490.1Zm-3.76-.9h-13.08v4.13h11.86a14.6,14.6,0,0,1-1.08,5.44,9.3,9.3,0,0,1-2.47,3.4,10.884,10.884,0,0,1-3.04,1.85,17.924,17.924,0,0,1-3.59.89v4.13a6.69,6.69,0,0,0,1.02-.11,16.574,16.574,0,0,0,2.57-.65,18.026,18.026,0,0,0,3.34-1.49,12.885,12.885,0,0,0,3.33-2.75,15.889,15.889,0,0,0,2.72-4.51,17.667,17.667,0,0,0,1.18-6.53v-0.96h0.08a2.8,2.8,0,0,0,2.03-.83,2.711,2.711,0,0,0,.84-2.01,2.868,2.868,0,0,0-2.87-2.87,2.7,2.7,0,0,0-2.01.83,2.768,2.768,0,0,0-.83,2.04h0Zm20.62,15.22h-7.81v-10.8h7.81v10.8Zm4.23-14.86h-16.25v18.91h16.25v-18.91Zm20.41,3.07v-3.72h-1.78v3.72h1.78Zm2.79,0v-3.72h-1.78v3.72h1.78Zm-4.34,1.01a19.458,19.458,0,0,1-2.67,5.54,15.917,15.917,0,0,1-3.3,3.35,10.914,10.914,0,0,1-3.39,1.78,12.778,12.778,0,0,1-2.65.53,6.509,6.509,0,0,1-1.06.04v4.21a11.15,11.15,0,0,0,1.35-.09,16.445,16.445,0,0,0,3.43-.78,17.229,17.229,0,0,0,4.43-2.29,19.511,19.511,0,0,0,4.51-4.59,23.408,23.408,0,0,0,3.46-7.7h-4.11Zm-5.5-.59v-4.06h-7.57v4.06h7.57Zm0,6.28v-4.06h-7.57v4.06h7.57Zm19.94-3.16v9.2h-5.48v3.44h14.48v-3.44h-5.4v-9.2h4.93v-3.43h-13.59v3.43h5.06Zm17.73-8.14a14.713,14.713,0,0,1-1.08,3.56,17.153,17.153,0,0,1-1.41,2.52,7.89,7.89,0,0,1-1.27,1.53,7.109,7.109,0,0,1-.59.48v4.99a5.1,5.1,0,0,0,1-.65,17.622,17.622,0,0,0,2.36-2.12,23.475,23.475,0,0,0,2.92-3.77h5.97a13.788,13.788,0,0,1-1.3,4.73,11.6,11.6,0,0,1-2.55,3.28,12.989,12.989,0,0,1-3.02,2.12,14.671,14.671,0,0,1-2.44.97,10.194,10.194,0,0,1-1.02.25v4.18a6.824,6.824,0,0,0,.98-0.19,18.443,18.443,0,0,0,2.47-.82,24.188,24.188,0,0,0,3.25-1.6,16.631,16.631,0,0,0,3.41-2.66,14.35,14.35,0,0,0,2.86-4.22,17.744,17.744,0,0,0,1.47-5.94v-3.95h-8.5c0.1-.41.21-0.84,0.31-1.29s0.19-.91.26-1.4h-4.08Zm22.01,21.76v-10.62h10.85v-4.06h-10.85v-6.97h-4.09v21.65h4.09Z" transform="translate(-901.156 -3454.59)"/>
</svg>
