<svg xmlns="http://www.w3.org/2000/svg" width="234.656" height="39.438" viewBox="0 0 234.656 39.438">
  <defs>
    <style>
      .cls-1 {
        fill: #333;
        fill-rule: evenodd;
      }
    </style>
  </defs>
  <path id="logo.svg" class="cls-1" d="M199.686,37.115V54.254H203.8V47.721h5.843V44.293H203.8v-3.75h6.809V37.115H199.686Zm19.091,17.461c4.141,0,6.534-2.508,6.534-5.36a4.732,4.732,0,0,0-3.382-4.693l-2.14-.851c-1.518-.6-2.576-0.966-2.576-1.932,0-.9.759-1.4,2.024-1.4a5.568,5.568,0,0,1,3.52,1.311L224.8,39.07a7.963,7.963,0,0,0-5.567-2.254c-3.635,0-6.211,2.3-6.211,5.176a5.013,5.013,0,0,0,3.473,4.693l2.186,0.92c1.472,0.621,2.416.943,2.416,1.932,0,0.92-.714,1.5-2.232,1.5a6.806,6.806,0,0,1-4.141-1.748l-2.347,2.83A9.58,9.58,0,0,0,218.777,54.576Zm9.268-17.461V54.254h4.118V37.115h-4.118Zm18.7,0h-6.28V54.254h4.118V48.227h1.978l3.152,6.027h4.6L250.5,47.468a5.066,5.066,0,0,0,2.945-4.946C253.44,38.38,250.4,37.115,246.745,37.115Zm-2.162,7.868v-4.6h1.84c1.956,0,3.014.529,3.014,2.139s-1.058,2.462-3.014,2.462h-1.84Zm17.664,9.593a8.447,8.447,0,0,0,4.67-1.5l-1.357-2.462a5.328,5.328,0,0,1-2.761.828,2.992,2.992,0,0,1-3.267-2.531h7.684a7.674,7.674,0,0,0,.184-1.771c0-3.566-1.84-6.3-5.613-6.3-3.152,0-6.212,2.623-6.212,6.856C255.575,52.046,258.474,54.576,262.247,54.576Zm-2.784-8.351a2.417,2.417,0,0,1,2.393-2.255,1.953,1.953,0,0,1,2.07,2.255h-4.463Zm14.353,8.351c3.565,0,5.452-1.864,5.452-4.279,0-2.37-1.818-3.313-3.451-3.934-1.357-.483-2.485-0.782-2.485-1.564,0-.621.437-0.943,1.381-0.943a4.98,4.98,0,0,1,2.714,1.1l1.818-2.439a7.483,7.483,0,0,0-4.67-1.679c-3.06,0-5.062,1.679-5.062,4.141,0,2.185,1.772,3.244,3.336,3.865,1.335,0.529,2.6.9,2.6,1.679,0,0.644-.46,1.035-1.541,1.035a5.688,5.688,0,0,1-3.313-1.38l-1.818,2.554A8.463,8.463,0,0,0,273.816,54.576Zm13.639,0a8.447,8.447,0,0,0,4.67-1.5l-1.357-2.462a5.328,5.328,0,0,1-2.761.828,2.992,2.992,0,0,1-3.267-2.531h7.684a7.674,7.674,0,0,0,.184-1.771c0-3.566-1.84-6.3-5.613-6.3-3.152,0-6.212,2.623-6.212,6.856C280.783,52.046,283.682,54.576,287.455,54.576Zm-2.784-8.351a2.417,2.417,0,0,1,2.393-2.255,1.953,1.953,0,0,1,2.07,2.255h-4.463Zm13.754,8.351a5.591,5.591,0,0,0,3.75-1.633h0.115l0.276,1.311H305.9V46.823c0-4.1-1.909-5.981-5.291-5.981a10.882,10.882,0,0,0-5.636,1.725l1.426,2.692a7.184,7.184,0,0,1,3.428-1.15,1.69,1.69,0,0,1,1.978,1.679c-5.107.552-7.27,2.047-7.27,4.808A3.78,3.78,0,0,0,298.425,54.576Zm0-4.3c0-.92.829-1.679,3.382-2v2.093a2.577,2.577,0,0,1-1.978,1.035A1.167,1.167,0,0,1,298.425,50.274Zm10.511-9.11v13.09h4.1V46.777a3.149,3.149,0,0,1,2.806-2.346,5.66,5.66,0,0,1,1.45.207l0.667-3.52a3.7,3.7,0,0,0-1.588-.276,4.475,4.475,0,0,0-3.727,2.6H312.57l-0.3-2.277h-3.335Zm16.331,13.412a6.622,6.622,0,0,0,4.325-1.541l-1.587-2.692a3.757,3.757,0,0,1-2.278.92c-1.587,0-2.784-1.38-2.784-3.566,0-2.163,1.128-3.543,2.945-3.543a2.564,2.564,0,0,1,1.656.69l1.91-2.6a5.665,5.665,0,0,0-3.819-1.4,6.623,6.623,0,0,0-6.879,6.856C318.756,52.046,321.586,54.576,325.267,54.576Zm6.462-18.7V54.254h4.1V45.512a3.046,3.046,0,0,1,2.254-1.173c1.035,0,1.518.506,1.518,2.324v7.592h4.1v-8.1c0-3.267-1.22-5.314-4.072-5.314a5.82,5.82,0,0,0-4,1.771l0.208-2.324V35.873h-4.1Zm25.853,1.242h-6.027V54.254h4.118V48.572h2c3.635,0,6.764-1.795,6.764-5.867C364.438,38.472,361.332,37.115,357.582,37.115Zm-1.909,8.213V40.382h1.679c1.979,0,3.083.6,3.083,2.324,0,1.679-.966,2.623-2.968,2.623h-1.794Zm11.246-4.164v13.09h4.1V46.777a3.149,3.149,0,0,1,2.806-2.346,5.66,5.66,0,0,1,1.45.207l0.667-3.52a3.7,3.7,0,0,0-1.588-.276,4.475,4.475,0,0,0-3.727,2.6h-0.069l-0.3-2.277h-3.335Zm16.239,13.412c3.313,0,6.4-2.531,6.4-6.879,0-4.325-3.083-6.856-6.4-6.856-3.336,0-6.419,2.531-6.419,6.856C376.739,52.046,379.822,54.576,383.158,54.576ZM380.926,47.7c0-2.163.691-3.543,2.232-3.543,1.518,0,2.209,1.38,2.209,3.543,0,2.185-.691,3.566-2.209,3.566C381.617,51.263,380.926,49.883,380.926,47.7Zm10.4,11.641c3.681,0,4.832-2.485,4.832-5.383V41.164h-4.118V54.093c0,1.426-.346,2.048-1.335,2.048a3.138,3.138,0,0,1-1.012-.184l-0.713,3.014A6.277,6.277,0,0,0,391.321,59.338Zm0.484-22.108a2.3,2.3,0,1,0,2.277-2.093A2.086,2.086,0,0,0,391.805,37.23Zm13.456,17.346a8.447,8.447,0,0,0,4.67-1.5l-1.357-2.462a5.328,5.328,0,0,1-2.761.828,2.992,2.992,0,0,1-3.267-2.531h7.684a7.674,7.674,0,0,0,.184-1.771c0-3.566-1.84-6.3-5.613-6.3-3.152,0-6.212,2.623-6.212,6.856C398.589,52.046,401.488,54.576,405.261,54.576Zm-2.784-8.351a2.417,2.417,0,0,1,2.393-2.255,1.953,1.953,0,0,1,2.07,2.255h-4.463Zm16.216,8.351a6.622,6.622,0,0,0,4.325-1.541l-1.587-2.692a3.757,3.757,0,0,1-2.278.92c-1.587,0-2.784-1.38-2.784-3.566,0-2.163,1.128-3.543,2.945-3.543a2.568,2.568,0,0,1,1.657.69l1.909-2.6a5.665,5.665,0,0,0-3.819-1.4,6.623,6.623,0,0,0-6.879,6.856C412.182,52.046,415.012,54.576,418.693,54.576Zm11.615,0a9.635,9.635,0,0,0,2.968-.483l-0.645-2.968a3.805,3.805,0,0,1-1.2.253c-0.966,0-1.656-.575-1.656-2.025V44.362h3.082v-3.2h-3.082V37.69H426.4l-0.46,3.474-2.025.161v3.037h1.772V49.4C425.684,52.483,427.018,54.576,430.308,54.576Zm-225.262,20c3.313,0,6.4-2.531,6.4-6.879,0-4.325-3.083-6.856-6.4-6.856-3.336,0-6.419,2.531-6.419,6.856C198.627,72.046,201.71,74.576,205.046,74.576ZM202.814,67.7c0-2.163.691-3.543,2.232-3.543,1.518,0,2.209,1.38,2.209,3.543,0,2.186-.691,3.566-2.209,3.566C203.505,71.264,202.814,69.883,202.814,67.7ZM213.9,61.164v13.09H218V65.512a3.046,3.046,0,0,1,2.254-1.173c1.035,0,1.519.506,1.519,2.324v7.592h4.095v-8.1c0-3.267-1.22-5.314-4.072-5.314A5.923,5.923,0,0,0,217.6,62.8h-0.069l-0.3-1.634H213.9Zm19.826-4.049V74.254h3.681V68.388a56.884,56.884,0,0,0-.53-5.935h0.092l1.381,4.1,2.323,6.257h2.255l2.3-6.257,1.427-4.1h0.115a51.287,51.287,0,0,0-.552,5.935v5.867h3.75V57.115h-4.463l-2.623,7.408c-0.322.989-.6,2.07-0.943,3.106h-0.115c-0.322-1.035-.6-2.117-0.944-3.106l-2.714-7.408h-4.44Zm23.046,17.461a5.591,5.591,0,0,0,3.75-1.633h0.115l0.276,1.311h3.336V66.823c0-4.1-1.909-5.981-5.291-5.981a10.882,10.882,0,0,0-5.636,1.725l1.426,2.692a7.181,7.181,0,0,1,3.428-1.15,1.69,1.69,0,0,1,1.978,1.679c-5.107.552-7.27,2.047-7.27,4.808A3.78,3.78,0,0,0,256.772,74.576Zm0-4.3c0-.92.829-1.679,3.382-2v2.094a2.577,2.577,0,0,1-1.978,1.035A1.168,1.168,0,0,1,256.772,70.274Zm10.511-9.11v13.09h4.095V66.777a3.149,3.149,0,0,1,2.806-2.346,5.66,5.66,0,0,1,1.45.207l0.667-3.52a3.7,3.7,0,0,0-1.588-.276,4.475,4.475,0,0,0-3.727,2.6h-0.069l-0.3-2.278h-3.335Zm10.557,0v13.09h4.1V61.164h-4.1Zm-0.23-3.934a2.286,2.286,0,1,0,2.277-2.093A2.063,2.063,0,0,0,277.61,57.23Zm7.5,3.934v13.09H289.2V65.512a3.046,3.046,0,0,1,2.254-1.173c1.035,0,1.519.506,1.519,2.324v7.592h4.1v-8.1c0-3.267-1.22-5.314-4.072-5.314a5.923,5.923,0,0,0-4.188,1.956h-0.069l-0.3-1.634h-3.335Zm20.954,13.412a8.447,8.447,0,0,0,4.67-1.5l-1.357-2.462a5.328,5.328,0,0,1-2.761.828,2.992,2.992,0,0,1-3.267-2.531h7.684a7.674,7.674,0,0,0,.184-1.772c0-3.566-1.84-6.3-5.613-6.3-3.152,0-6.212,2.623-6.212,6.856C299.39,72.046,302.289,74.576,306.062,74.576Zm-2.784-8.351a2.417,2.417,0,0,1,2.393-2.255,1.953,1.953,0,0,1,2.07,2.255h-4.463Zm21.276-9.11h-6.027V74.254h4.118V68.572h2c3.635,0,6.764-1.794,6.764-5.866C331.41,58.472,328.3,57.115,324.554,57.115Zm-1.909,8.213V60.382h1.679c1.979,0,3.083.6,3.083,2.324,0,1.679-.966,2.623-2.968,2.623h-1.794Zm14.972,9.248a5.264,5.264,0,0,0,2.025-.345l-0.483-3.014a1.9,1.9,0,0,1-.46.046c-0.322,0-.713-0.253-0.713-1.127V55.873h-4.095V70C333.891,72.736,334.811,74.576,337.617,74.576Zm7.107,0a5.591,5.591,0,0,0,3.75-1.633h0.115l0.276,1.311H352.2V66.823c0-4.1-1.909-5.981-5.291-5.981a10.888,10.888,0,0,0-5.637,1.725l1.427,2.692a7.181,7.181,0,0,1,3.428-1.15,1.69,1.69,0,0,1,1.978,1.679c-5.107.552-7.27,2.047-7.27,4.808A3.78,3.78,0,0,0,344.724,74.576Zm0-4.3c0-.92.829-1.679,3.382-2v2.094a2.577,2.577,0,0,1-1.978,1.035A1.168,1.168,0,0,1,344.724,70.274Zm14.422,4.3c3.565,0,5.452-1.864,5.452-4.279,0-2.37-1.818-3.313-3.451-3.934-1.357-.483-2.485-0.782-2.485-1.564,0-.621.437-0.943,1.381-0.943a4.98,4.98,0,0,1,2.714,1.1l1.818-2.439a7.483,7.483,0,0,0-4.67-1.679c-3.06,0-5.062,1.679-5.062,4.141,0,2.186,1.772,3.244,3.336,3.865,1.335,0.529,2.6.9,2.6,1.679,0,0.644-.46,1.035-1.541,1.035a5.688,5.688,0,0,1-3.313-1.38l-1.818,2.554A8.463,8.463,0,0,0,359.146,74.576Zm12.857,0a9.635,9.635,0,0,0,2.968-.483l-0.645-2.968a3.805,3.805,0,0,1-1.2.253c-0.966,0-1.656-.575-1.656-2.025V64.362h3.082v-3.2h-3.082V57.69h-3.382l-0.46,3.474-2.025.161v3.037h1.772V69.4C367.379,72.483,368.713,74.576,372,74.576Zm4.967-13.412v13.09h4.095V61.164H376.97Zm-0.23-3.934a2.286,2.286,0,1,0,2.277-2.093A2.063,2.063,0,0,0,376.74,57.23Zm13.272,17.346a6.622,6.622,0,0,0,4.325-1.541l-1.587-2.692a3.755,3.755,0,0,1-2.278.92c-1.587,0-2.784-1.38-2.784-3.566,0-2.163,1.128-3.543,2.945-3.543a2.568,2.568,0,0,1,1.657.69l1.909-2.6a5.665,5.665,0,0,0-3.819-1.4A6.623,6.623,0,0,0,383.5,67.7C383.5,72.046,386.331,74.576,390.012,74.576Zm10.373,0c3.565,0,5.452-1.864,5.452-4.279,0-2.37-1.818-3.313-3.451-3.934-1.357-.483-2.485-0.782-2.485-1.564,0-.621.438-0.943,1.381-0.943A4.98,4.98,0,0,1,404,64.96l1.818-2.439a7.483,7.483,0,0,0-4.67-1.679c-3.06,0-5.062,1.679-5.062,4.141,0,2.186,1.772,3.244,3.336,3.865,1.335,0.529,2.6.9,2.6,1.679,0,0.644-.46,1.035-1.541,1.035a5.688,5.688,0,0,1-3.313-1.38l-1.818,2.554A8.463,8.463,0,0,0,400.385,74.576Z" transform="translate(-198.625 -35.125)"/>
</svg>
