<?xml version="1.0" encoding="UTF-8"?>
<svg id="_繝ｬ繧､繝､繝ｼ_1" xmlns="http://www.w3.org/2000/svg" viewBox="0 0 547.23 191.07">
	<defs>
		<style>.cls-1{fill:#fff;}.cls-1,.cls-2{stroke-width:0px;}.cls-2{fill:#054196;}</style>
	</defs>
	<rect class="cls-2" width="300" height="48" />
	<path class="cls-1"
		d="M108.5,14.89h3.85c-.62-1.6-1.36-2.93-1.78-3.64l2.87-1.07c.8,1.13,1.72,2.87,2.22,4.44l-.68.27h5.92c-.74-1.72-1.3-2.72-2.01-3.82l2.93-1.13c.62.95,1.78,3.14,2.25,4.62l-.98.33h4.8c.36-.68.8-1.57,1.95-4.86l3.41,1.01c-.68,1.57-1.07,2.34-1.95,3.85h3.76v6.78h-2.99v-3.97h-20.58v3.97h-2.99v-6.78Z" />
	<polygon class="cls-1"
		points="44.17 12.58 56.31 12.58 56.31 10.07 59.51 10.07 59.51 12.58 71.83 12.58 71.83 15.6 44.17 15.6 44.17 12.58" />
	<path class="cls-1"
		d="M102.25,37.91c-8.97-4-11.34-9.71-12.35-13.24-2.04,5.39-6.4,10.9-12.38,13.06l-2.07-3.08c8.8-3.35,11.58-10.78,12.32-14.33h-11.73v-3.14h12.02v-7.08h3.29v7.08h12.29v3.14h-11.73c1.21,6.31,4.74,12.23,12.44,14.33l-2.1,3.26Z" />
	<path class="cls-1"
		d="M135.75,30.26h-12.44v5.3c0,2.13-2.13,2.46-2.43,2.46h-5.8l-.56-3.14h4.77c.83,0,.83-.41.83-.95v-3.67h-12.41v-2.9h12.41v-2.31h1.3c1.01-.33,3.05-1.16,4.38-2.34h-13.18v-2.78h18.24v2.46c-1.69,1.51-5.21,3.79-7.55,4.74v.24h12.44v2.9Z" />
	<rect class="cls-1" x="147.71" y="22.67" width="8" height="3.29" />
	<path class="cls-1"
		d="M224.14,33.29c-3.08-2.19-7.67-5.95-11.05-12.68v9.42h6.1v2.96h-6.1v4.95h-3.05v-4.95h-5.92v-2.96h5.92v-9.42c-2.75,5.45-6.4,9.45-10.99,12.68l-1.78-2.96c5.42-3.61,8.74-6.93,11.4-12.26h-11.02v-3.02h12.38v-4.95h3.05v4.95h12.41v3.02h-11.05c2.84,5.8,7.02,9.33,11.4,11.91l-1.72,3.32Z" />
	<path class="cls-1"
		d="M257.34,18.51h-3.17v15.37c0,2.9-.21,4.09-3.32,4.09h-4.68l-.59-3.08h3.7c1.78,0,1.78-.53,1.78-1.78v-10.37c-1.9,3.91-4.65,7.34-7.97,10.19l-1.78-2.93c4.98-3.67,8.2-8.88,9.42-11.49h-8.77v-3.02h9.09v-5.39h3.11v5.39h3.17v3.02Z" />
	<path class="cls-1"
		d="M168.28,11.49v25.65h22.92V11.49h-22.92ZM187.92,34.08h-16.38v-8.41h16.38v8.41ZM187.92,22.65h-16.38v-8.11h16.38v8.11Z" />
	<path class="cls-1"
		d="M47.16,17.83v9.83h9.42v6.49c0,.8-.33.8-.98.8h-4.12l.56,3.11h4.83c2.55,0,2.64-2.07,2.64-2.84v-7.55h9.36v-9.83h-21.71ZM65.85,24.9h-15.73v-4.32h15.73v4.32Z" />
	<path class="cls-1"
		d="M29.92,28.34h8.23v-11.28h-10.45v-1.75h12.29v-2.78h-12.29v-2.37h-2.96v2.37h-12.38v2.78h12.38v1.75h-10.37v11.28h7.97c-2.93,2.99-6.78,5.21-10.34,6.28l1.96,2.75c2.69-.98,7.43-3.67,10.78-7.76v8.26h2.96v-8.26c3.14,3.64,8.17,6.63,11.02,7.73l1.75-3.05c-1.6-.47-6.52-2.13-10.54-5.95ZM24.74,25.88h-7.46v-2.04h7.46v2.04ZM24.74,21.5h-7.46v-1.95h7.46v1.95ZM27.7,19.54h7.58v1.95h-7.58v-1.95ZM27.7,25.88v-2.04h7.58v2.04h-7.58Z" />
	<path class="cls-1"
		d="M262.5,11.16v26.03h25.5V11.16h-25.5ZM284.95,34.29h-19.37V14.03h19.37v20.26Z" />
	<path class="cls-1"
		d="M267.8,23.78l2.46-1.48c2.4,3.02,3.32,4.89,3.76,5.8l-2.58,1.6c-.47-1.04-1.9-3.91-3.64-5.92Z" />
	<path class="cls-1"
		d="M283.68,21.02h-2.93v9.68c0,2.07-1.81,2.58-2.99,2.58h-3.85l-.47-2.96h3.55c.68,0,.83-.21.83-.71v-8.59h-10.9v-2.69h10.9v-3.29h2.93v3.29h2.93v2.69Z" />
	<path class="cls-1"
		d="M230.3,10.89v19.93h10.72V10.89h-10.72ZM238.18,28.01h-5v-3.05h5v3.05ZM238.18,22.27h-5v-2.99h5v2.99ZM238.18,16.64h-5v-2.93h5v2.93Z" />
	<path class="cls-1"
		d="M46,37.4l-2.16-2.37c3.82-2.46,5.86-5.48,6.57-6.49l2.64,1.6c-.56.8-3.38,4.8-7.05,7.26Z" />
	<path class="cls-1"
		d="M69.9,37.22c-3.5-2.07-5.06-3.91-7.43-7.17l2.67-1.6c2.16,2.81,4.09,4.53,6.84,6.13l-2.07,2.64Z" />
	<path class="cls-1"
		d="M231.04,37.99l-2.07-1.92c1.24-1.33,2.22-3.29,2.73-4.59l2.58,1.13c-.39.92-1.54,3.61-3.23,5.39Z" />
	<path class="cls-1"
		d="M239.16,37.49c-.44-1.33-1.3-3.35-2.49-5l2.67-.92c1.21,1.9,1.87,3.08,2.64,4.98l-2.81.95Z" />
	<path class="cls-2" d="M20.04,77.07H5.88v9.41h13.68v5.28H5.88v13.63H.36v-33.6h19.68v5.28Z" />
	<path class="cls-2"
		d="M22.4,97.76l4.75-2.78c1.34,3.79,4.13,5.66,8.35,5.66s6.24-1.78,6.24-4.42c0-1.39-.58-2.4-1.68-3.12-1.1-.72-3.12-1.54-5.95-2.4-3.22-.96-4.8-1.58-7.06-3.07-2.16-1.54-3.26-3.74-3.26-6.77s1.06-5.33,3.17-7.06c2.11-1.78,4.66-2.64,7.63-2.64,5.38,0,9.55,2.78,11.71,7.39l-4.66,2.69c-1.39-3.12-3.74-4.7-7.06-4.7s-5.28,1.63-5.28,4.18,1.63,3.65,6.77,5.23c1.3.43,2.21.72,2.78.96.62.19,1.44.53,2.5.96,1.1.43,1.92.91,2.45,1.34,1.78,1.39,3.7,3.7,3.46,6.91,0,3.02-1.1,5.47-3.31,7.25-2.16,1.78-5.04,2.64-8.59,2.64-6.48,0-11.18-3.12-12.96-8.26Z" />
	<path class="cls-2" d="M51.86,71.79h5.52v33.6h-5.52v-33.6Z" />
	<path class="cls-2"
		d="M61.96,102.96c3.64-4.48,6.08-10.36,6.96-12.72l3.76,3c-1.52,4.8-4.32,10.12-7.44,14.2l-3.28-4.48ZM68.76,88.68c-2.68-2.04-3.64-2.76-6.64-4.24l2.56-3.92c3.48,1.4,5.8,3.16,6.84,4l-2.76,4.16ZM70.36,78.04c-2.4-2.08-5.92-3.92-6.64-4.28l2.64-3.88c2.56.96,5.64,2.84,6.92,4l-2.92,4.16ZM98.39,80.04c0,1.04-.08,8.08-.12,8.56h2.08v4.12h-2.16c0,1.48-.24,4.16-.28,4.72h1.88v4.2h-2.28c-.28,2.48-.68,5.8-5,5.8h-5.64l-.76-3.8h4.84c1.4,0,1.68-.6,1.84-2h-19.84c.48-1.96,1.24-4.84,1.84-8.92h-2v-4.12h2.52c.24-2.72.36-4.24.48-6.88-.52.56-.8.84-1.56,1.56l-3.68-3.56c1.96-1.56,5.28-4.48,7.28-10.04l5,.6c-.28.88-.48,1.4-.96,2.64h18.48v4.4h-20.96c-.96,1.32-1.4,1.88-2.12,2.72h21.12ZM83.52,97.44c.24-1.24.28-1.6.68-4.72h-4.68c-.4,2.8-.44,3.04-.72,4.72h4.72ZM84.56,88.6c.12-1.52.16-2.24.24-4.4h-4.44c-.12,1.84-.2,2.68-.36,4.4h4.56ZM93.19,97.44c.16-2.04.2-2.84.32-4.72h-4.8c-.16,2.12-.28,3.04-.48,4.72h4.96ZM93.63,88.6c.04-2.04.04-2.36.08-4.4h-4.52c0,.6-.2,3.68-.2,4.4h4.64Z" />
	<path class="cls-2"
		d="M114.33,93.64c-1.56,3.8-4.96,10.12-8.2,13.84l-3.04-4.84c2.96-3.36,5.72-8.04,7.16-11.88l4.08,2.88ZM105.78,80.36c3.32,1.28,6.6,4,6.92,4.24l-2.88,4.24c-1.56-1.2-3.88-2.96-6.68-4.28l2.64-4.2ZM107.46,69.64c.84.36,1.56.68,3.8,1.88,2.08,1.16,2.72,1.72,3.2,2.16l-3,4.32c-1.8-1.48-4.56-3.28-6.76-4.24l2.76-4.12ZM115.09,76.36h4.68c-.4-1.24-1.12-3.24-2.32-5.76l4.96-.96c.76,1.56,1.88,4.64,2.28,6.72h6.28c.72-1.76,1.24-3.44,2.28-6.72l5.16.8c-.6,2.24-1.88,5.2-2.16,5.92h4.28v4.72h-10.24v4.4h9.32v4.48h-9.32v4.6h11v4.68h-11v8.16h-5.08v-8.16h-10.96v-4.68h10.96v-4.6h-9.12v-4.48h9.12v-4.4h-10.12v-4.72Z" />
	<path class="cls-2"
		d="M168.3,74.76l5,5.8c-1.2,6.28-4.12,18.36-19.24,25.28l-3.56-4.44c14.52-6.04,16.52-17.44,17.24-21.44h-23.2v-5.2h23.76ZM181.26,73.84c0,3.04-2.48,5.48-5.48,5.48s-5.48-2.44-5.48-5.48,2.48-5.48,5.48-5.48,5.48,2.4,5.48,5.48ZM172.94,73.84c0,1.56,1.28,2.84,2.84,2.84s2.84-1.28,2.84-2.84-1.32-2.84-2.84-2.84-2.84,1.2-2.84,2.84Z" />
	<path class="cls-2"
		d="M214.68,81.6c-2.04,18.12-15.8,22.68-22.52,24.36l-3-4.68c13.04-2.72,17.04-9.2,18.72-14.64h-25.6v-5.04h32.39ZM211,72.96v5.16h-24.96v-5.16h24.96Z" />
	<path class="cls-2"
		d="M216.65,101.08c8.04-3.6,17.28-9.56,22.28-22.12h-19.48v-5.2h27.04c-1.16,4.4-3,9.6-7,15.52,6.2,5.12,10.4,10.56,11.72,12.24l-4.32,3.6c-1.76-2.32-5.12-6.76-10.68-11.6-2.88,3.16-7.72,8.2-16.44,12l-3.12-4.44Z" />
	<path class="cls-2"
		d="M273.48,84.12h13.12v5.16h-13.2c-.6,7.36-3.6,12.68-12.16,17.08l-3.72-4.4c8.88-3.92,10.08-9.08,10.52-12.68h-15.28v-5.16h15.4v-4.56c-5.04,1.04-9.08,1.52-11.04,1.76l-1.88-5.12c7.08-.56,17.24-2,23.4-5l3.92,4c-3.56,1.68-7.6,2.76-9.08,3.16v5.76Z" />
	<path class="cls-2"
		d="M295.49,80.32c1.32,1.96,2.88,4.48,4.76,8.48l-4.08,2.2c-1.32-2.92-2.56-5.24-4.64-8.4l3.96-2.28ZM319.05,80.6c-1.52,11.48-6.24,21.2-19.72,25.64l-3.56-3.8c12.72-3.76,17.08-11.68,18.44-22.76l4.84.92ZM303.77,78.48c1.8,2.76,3.12,5.36,4.48,8.68l-4.12,2.08c-1.4-3.44-2.4-5.44-4.4-8.64l4.04-2.12Z" />
	<path class="cls-2"
		d="M328.04,101.88c9.84-3.36,18.52-10.72,20.92-23.44h-12.28c-1.44,2.36-3.92,6.24-9.6,10.92l-4.08-3.52c3.08-2.48,7.16-6.24,10.32-12.48h22.28c-2.36,21.08-14.12,29.16-23.88,32.99l-3.68-4.48Z" />
	<path class="cls-2"
		d="M369.19,90.56c-1.08.68-4.52,2.88-4.52,4.84,0,3.24,7.56,3.48,11.24,3.48,6.64,0,11.36-1.04,13.64-1.56l.32,5.8c-4.48.8-8.76,1.16-13.32,1.16s-17.4-.16-17.4-8.24c0-2.12.84-4.8,6.28-8.64l3.76,3.16ZM383.63,80.64c-2.08-.36-5.84-1-11.48-1-4.44,0-7.96.36-9.76.56l.24-5.56c1.92-.2,5.2-.48,9.24-.48,4.24,0,8.08.32,12.28,1l-.52,5.48ZM385.51,69.84c1.72,2.48,2.8,4.76,3.92,7.6l-2.92,1.6c-1.12-3.24-1.96-4.92-3.72-7.72l2.72-1.48ZM391.15,68.36c1.68,2.4,2.52,4.24,3.92,7.6l-2.88,1.64c-1.16-3.24-2.04-5.08-3.76-7.76l2.72-1.48Z" />
	<path class="cls-2"
		d="M410.32,103.24c4.8-3.68,7-7.8,7.92-9.56-1.48-.96-4.4-2.72-7.28-3.56-6.24,12.24-9.24,12.48-11.08,12.48-3.48,0-5.16-3.24-5.16-6.72,0-5.8,4.68-11.52,11.6-11.52.84,0,1.4.08,1.92.16,1.92-4.52,2.16-5.04,2.8-6.72-3.04.28-6.32.56-10.4.4l-.12-5.12c1.4.08,2.72.12,4.8.12,5.8,0,8.12-.52,9.12-.72l3.24,2.44c-1.76,4.16-2.4,5.76-4.48,10.64,1.08.4,3.48,1.24,7.08,3.32.64-2.08,1.24-4.4,1.48-7.88l5.16,1.32c-.52,4.64-1.32,7.08-2.12,9.44,2.16,1.56,2.88,2.08,5,3.92l-2.88,4.8c-1.48-1.36-2.44-2.24-4.32-3.72-1.84,3.32-3.92,6.4-7.76,9.6l-4.52-3.12ZM399.36,95.88c0,.8.16,1.4.64,1.4,1.32,0,4.6-5.92,5.76-8.08-4.4-.08-6.4,4.16-6.4,6.68Z" />
	<path class="cls-2"
		d="M435.5,82.8c1.56,1.24,3.4,2.8,6.08,5.48.24-.64,1.24-3.4,1.76-7.96h-11.8v-4.88h7.2v-5.72h4.96v5.72h6.72v4.88h-2.08c-.44,4.08-1.16,7.6-3,12,.6.68,3.64,4.04,5.52,7.44l-4.08,3.28c-2.04-3.44-3.68-5.56-3.92-5.92-2.84,4.4-5.52,7.04-8.64,9.68l-3.36-4.36c1.6-1.24,5.56-4.24,8.56-9.44-3.24-3.68-6.24-5.96-7.4-6.84l3.48-3.36ZM454.1,84.8c2.36,3.6,3.8,6.92,5.08,10.48l-4.76,2.28c-.8-2.52-2.48-7-4.72-10.48l4.4-2.28ZM465.89,69.72v7.16h3.16v5.08h-3.16v21.24c0,3.32-1.12,4.2-4.68,4.2h-6.68l-1.08-4.88h5.84c1.52,0,1.52-.2,1.52-1.28v-19.28h-9.32v-5.08h9.32v-7.16h5.08Z" />
	<path class="cls-2"
		d="M491.41,79.32l-2.44-1.88c.64-.52.84-.72,1.16-1.04h-5.04c.44.64.92,1.56,1.2,2.2l-4.64,1.48c-.48-1.68-.72-2.24-1.36-3.68h-.68c-1.96,2.56-3.32,3.64-4.52,4.56l-3.2-3.64c2.16-1.6,4.32-3.6,6.12-7.68l4.8.68c-.24.76-.36,1.12-.6,1.76h8.2v4.04c2.64-2.76,3.6-5.48,4-6.52l4.72.68c-.2.68-.32,1.08-.6,1.8h11.28v4.32h-7.16c.52.76,1.08,1.8,1.32,2.32l-4.64,1.56c-.4-1.12-1.2-2.84-1.76-3.88h-1.48c-.52.72-1.2,1.72-2.64,3.24v1.48h16.36v4.12h-16.36v1.92h13.76v7.44c0,.96,0,3.52-3.16,3.52h-1.88c1.44.76,3.4,1.76,8.24,3.16l-2.44,4.8c-8.56-3.16-12.92-7.88-14.52-9.72v11.04h-4.8v-10.92c-4,4.32-8.92,7.64-14.4,9.72l-2.44-4.76c2.36-.6,10.76-2.84,16.48-10.48h-8.32v6.6h-4.96v-10.4h13.64v-1.92h-16.2v-4.12h16.2v-1.8h2.76ZM499.41,94.12h2.04c.72,0,.88-.24.88-1.16v-2h-8.4c2.8,3.56,5.28,5.28,6.2,5.92l-.72-2.76Z" />
	<path class="cls-2"
		d="M531.12,100.8c6.56-2.08,10.68-5.84,10.68-12.36,0-4.08-1.92-9.68-9.2-10.64-.56,4.36-1.72,13.4-5.04,20.36-.76,1.6-2.44,5.08-6.08,5.08-4.36,0-8.56-5.64-8.56-13,0-10.88,8.36-17.32,18-17.32s16.32,6.4,16.32,15.64c0,11.88-10.08,15.64-12.92,16.72l-3.2-4.48ZM518,90.36c0,4.24,1.8,7.32,3.28,7.32.6,0,1.2-.16,2.64-4.2,2.08-5.92,2.92-11.16,3.48-15.44-7.48,2.04-9.4,8.16-9.4,12.32Z" />
	<path class="cls-2"
		d="M0,153.46c4.24-8.48,6.32-16.16,7.52-20.6-3.4.08-3.84.12-6.44.08l-.08-5.2c1.2.04,2.32.08,4.16.08s2.84-.04,3.6-.04c.64-2.84.76-3.52,1.32-6.52l5.32.72c-.2.84-1.12,4.6-1.28,5.4,3.12-.4,4.56-.6,7.72-1.32l.2,5.04c-2.68.52-5.08.96-9.16,1.36-1.6,6.48-5,16.76-7.84,23.04l-5.04-2.04ZM33.39,155.18c-1.28.16-4.28.48-8.56.48s-12.96,0-12.96-6.56c0-1.8.76-3.64,3.04-5.92l4.04,2.28c-1.08,1.08-2,2.32-2,3.2,0,2.08,5.04,2.08,7.24,2.08,3.72,0,7.16-.48,9.2-.76v5.2ZM32.43,138.14c-1.84-.24-4.08-.48-7.4-.48-4.16,0-6.84.4-8.44.64l.6-5.04c1.24-.16,4.24-.56,8.32-.56,3.44,0,5.56.24,7.4.48l-.48,4.96Z" />
	<path class="cls-2"
		d="M61.41,122.54c-.52,2.64-.64,3.08-1.08,5.2,7.84,1.52,11.84,6.84,11.84,13.52,0,13.2-13.72,14.96-16.16,15.28l-2.04-4.68c9.28-.96,12.88-5.56,12.88-10.72,0-4.12-2.36-7.56-7.68-8.64-4.6,17.04-11.52,21.12-15.68,21.12s-6.28-3.8-6.28-8.48c0-2.64.76-7.72,5.52-12.2-.64-2.04-1-3.4-1.88-7.44l5.04-1.84c.24,1.48.52,3.4,1.2,6.2.72-.4,3.6-1.96,8-2.36.44-2.16.88-4.92,1.08-6.08l5.24,1.12ZM44.5,138.14c-1.52,2.04-2.48,4.44-2.48,7s1.04,3.56,2,3.56c1.64,0,3.32-2.04,4-2.88-.6-1.12-1.84-3.32-3.52-7.68ZM48.29,134.62c.68,2.12,1.36,3.76,2.76,6.6,1.24-2.72,2.28-5.84,3.04-8.72-1.32.2-3.48.68-5.8,2.12Z" />
	<path class="cls-2"
		d="M94.36,151.3c6.56-2.08,10.68-5.84,10.68-12.36,0-4.08-1.92-9.68-9.2-10.64-.56,4.36-1.72,13.4-5.04,20.36-.76,1.6-2.44,5.08-6.08,5.08-4.36,0-8.56-5.64-8.56-13,0-10.88,8.36-17.32,18-17.32s16.32,6.4,16.32,15.64c0,11.88-10.08,15.64-12.92,16.72l-3.2-4.48ZM81.24,140.86c0,4.24,1.8,7.32,3.28,7.32.6,0,1.2-.16,2.64-4.2,2.08-5.92,2.92-11.16,3.48-15.44-7.48,2.04-9.4,8.16-9.4,12.32Z" />
	<path class="cls-2"
		d="M128.42,133.54v23h-11.24v-13.64c-.48.56-.68.8-1.52,1.64l-1.76-5.92c2.88-3.4,4.2-6.68,4.56-12.2h-3.84v-4.64h14.44v4.64h-6c-.32,3.44-.68,4.96-1.36,7.12h6.72ZM124.54,137.9h-3.2v14.12h3.2v-14.12ZM133.58,126.42h-3v-4.64h21.16v4.64h-3.44v8.52h4.08v4.72h-4.08v18.32h-4.88v-18.32h-5.08v2.16c0,6.44-1.24,12.32-5.56,16.16l-4.12-3.8c1.64-1.52,4.92-4.56,4.92-12.64v-1.88h-3.72v-4.72h3.72v-8.52ZM138.34,134.94h5.08v-8.52h-5.08v8.52Z" />
	<path class="cls-2"
		d="M173.46,135.66c-.04,1.08-.08,2.32-.28,3.96h11v12.2c0,.64.04.92.84.92h1.52c.88,0,1.04-.52,1.12-.92.16-.84.16-3.88.16-4.68l4.36,1.04c-.2,7.24-.56,9.24-3.24,9.24h-6.6c-3.16,0-3.16-2.28-3.16-3.52v-9.64h-6.84c-.76,2.76-3.12,10.32-15.72,13.88l-2.52-4.92c9.72-1.96,12-6.04,13-8.96h-10.88v-4.64h11.88c.16-1.16.2-2,.28-3.96h5.08ZM174.78,127.62h-4.2c-1.2,4.88-4.24,8.68-12.6,10.72l-1.88-4.52c6.44-1.04,8.6-2.8,9.92-6.2h-5.6v3.92h-4.88v-8.32h15.12v-2.96h5.04v2.96h15.28v8.32h-1.4c-.32,2.72-.72,5.16-3.44,5.16h-7.64c-1.76,0-3.72,0-3.72-2.92v-6.16ZM179.1,131.58c0,.48,0,.88.8.88h3.88c.76,0,1.04-.32,1.24-2.72l1.12.24v-2.36h-7.04v3.96Z" />
	<path class="cls-2"
		d="M218.88,125.26l5,5.8c-1.2,6.28-4.12,18.36-19.24,25.28l-3.56-4.44c14.52-6.04,16.52-17.44,17.24-21.44h-23.2v-5.2h23.76ZM231.84,124.34c0,3.04-2.48,5.48-5.48,5.48s-5.48-2.44-5.48-5.48,2.48-5.48,5.48-5.48,5.48,2.4,5.48,5.48ZM223.52,124.34c0,1.56,1.28,2.84,2.84,2.84s2.84-1.28,2.84-2.84-1.32-2.84-2.84-2.84-2.84,1.2-2.84,2.84Z" />
	<path class="cls-2"
		d="M235.49,124.98h29.83v28.52h-29.83v-28.52ZM259.92,148.38v-18.16h-19.04v18.16h19.04Z" />
	<path class="cls-2"
		d="M282.4,140.54c-4.08-1.92-6.96-3.08-11.68-4.72l2.08-4.72c2.24.72,6,1.92,11.72,4.64l-2.12,4.8ZM304.52,135.1c-6.96,10.36-17,18.56-29.07,21.44l-2.24-5.48c6.96-1.32,18.16-5.76,27.8-20.72l3.52,4.76ZM285.72,131.02c-4.2-1.96-6.72-3-11.44-4.64l2.08-4.68c4.2,1.44,6.84,2.48,11.36,4.48l-2,4.84ZM296.72,120.3c1.76,2.28,2.64,4.08,4.2,7.44l-3,1.72c-1.28-3.16-2-4.72-4-7.6l2.8-1.56ZM303,119.42c1.72,2.36,2.72,4.4,4.04,7.52l-3.04,1.64c-1.24-3.28-2-4.8-3.84-7.64l2.84-1.52Z" />
	<path class="cls-2"
		d="M325.3,149.18h11.4v4.68h-27.59v-4.68h11.4v-12.76h-9.36v-4.68h23.52v4.68h-9.36v12.76Z" />
	<path class="cls-2"
		d="M345.99,152.38c9.84-3.36,18.52-10.72,20.92-23.44h-12.28c-1.44,2.36-3.92,6.24-9.6,10.92l-4.08-3.52c3.08-2.48,7.16-6.24,10.32-12.48h22.28c-2.36,21.08-14.12,29.16-23.88,32.99l-3.68-4.48Z" />
	<path class="cls-2"
		d="M399.25,146.78c-5.72-4.44-9.44-6.56-14.2-8.92v18.72h-5.52v-34.95h5.52v10.36c4.64,2.16,10.28,4.92,17.28,10.08l-3.08,4.72Z" />
	<path class="cls-2" d="M6.86,178.65v1.2h-2.81v8.32h-1.25v-8.32H0v-1.2h6.86Z" />
	<path class="cls-2"
		d="M14.27,183.99v4.17h-1.18v-4.1c0-1.1-.64-1.74-1.69-1.74-1.18,0-1.97.72-1.97,2.24v3.6h-1.18v-9.51h1.18v3.7c.48-.77,1.21-1.16,2.2-1.16,1.59,0,2.64,1.07,2.64,2.8Z" />
	<path class="cls-2"
		d="M17.1,185.31c.23,1.21,1.17,1.92,2.46,1.92.9,0,1.55-.33,1.96-.99l1.01.57c-.67,1.02-1.66,1.54-2.99,1.54-1.07,0-1.96-.34-2.64-1.01-.67-.68-1.01-1.54-1.01-2.57s.33-1.88.99-2.55c.67-.68,1.52-1.02,2.57-1.02.99,0,1.81.35,2.43,1.06.64.69.95,1.54.95,2.53,0,.18-.01.35-.04.53h-5.69ZM17.1,184.27h4.54c-.2-1.29-1.1-1.97-2.19-1.97-1.26,0-2.15.77-2.35,1.97Z" />
	<path class="cls-2"
		d="M28.27,178.65h1.26v6.27c0,1.35.83,2.19,2.31,2.19s2.31-.84,2.31-2.19v-6.27h1.25v6.32c0,1.02-.33,1.85-.99,2.46-.67.61-1.52.91-2.57.91s-1.92-.3-2.58-.91c-.67-.61-.99-1.44-.99-2.46v-6.32Z" />
	<path class="cls-2"
		d="M43.6,183.99v4.17h-1.18v-4.1c0-1.1-.64-1.74-1.69-1.74-1.18,0-1.97.72-1.97,2.24v3.6h-1.18v-6.8h1.18v.98c.48-.77,1.21-1.16,2.2-1.16,1.59,0,2.64,1.07,2.64,2.8Z" />
	<path class="cls-2"
		d="M45.4,179.34c0-.43.35-.8.8-.8s.79.37.79.8-.35.79-.79.79-.8-.35-.8-.79ZM45.6,188.16v-6.8h1.18v6.8h-1.18Z" />
	<path class="cls-2" d="M53.65,181.37h1.28l-2.72,6.8h-1.39l-2.72-6.8h1.28l2.13,5.53,2.13-5.53Z" />
	<path class="cls-2"
		d="M56.8,185.31c.23,1.21,1.17,1.92,2.46,1.92.9,0,1.55-.33,1.96-.99l1.01.57c-.67,1.02-1.66,1.54-2.99,1.54-1.07,0-1.96-.34-2.64-1.01-.67-.68-1.01-1.54-1.01-2.57s.33-1.88.99-2.55c.67-.68,1.52-1.02,2.57-1.02.99,0,1.81.35,2.43,1.06.64.69.95,1.54.95,2.53,0,.18-.01.35-.04.53h-5.69ZM56.8,184.27h4.54c-.2-1.29-1.1-1.97-2.19-1.97-1.26,0-2.15.77-2.35,1.97Z" />
	<path class="cls-2"
		d="M65.41,182.51c.39-.84,1.1-1.26,2.12-1.26v1.24c-.58-.03-1.07.12-1.5.46s-.63.87-.63,1.62v3.6h-1.18v-6.8h1.18v1.14Z" />
	<path class="cls-2"
		d="M71.34,184.22c1.06.23,2.47.63,2.46,2.08,0,.61-.24,1.12-.72,1.48-.48.37-1.07.56-1.82.56-1.32,0-2.31-.63-2.7-1.59l1.02-.58c.22.65.86,1.06,1.69,1.06.78,0,1.35-.29,1.35-.92,0-.53-.6-.83-1.35-1.01-1.07-.29-2.46-.64-2.46-2.08,0-.58.23-1.07.68-1.45.46-.38,1.03-.57,1.73-.57,1.1,0,2.01.53,2.45,1.41l-.99.56c-.24-.58-.73-.87-1.45-.87-.67,0-1.21.33-1.21.91,0,.53.6.82,1.35,1.02Z" />
	<path class="cls-2"
		d="M75.28,179.34c0-.43.35-.8.8-.8s.79.37.79.8-.35.79-.79.79-.8-.35-.8-.79ZM75.49,188.16v-6.8h1.18v6.8h-1.18Z" />
	<path class="cls-2"
		d="M82.4,182.51h-1.81v3.68c0,1.05.6.97,1.81.91v1.06c-2.07.27-2.99-.29-2.99-1.97v-3.68h-1.35v-1.14h1.35v-1.55l1.18-.35v1.9h1.81v1.14Z" />
	<path class="cls-2"
		d="M89.07,181.37h1.26l-2.77,7.22c-.58,1.54-1.66,2.39-3.02,2.3v-1.1c.83.07,1.44-.39,1.84-1.39l.12-.26-2.96-6.77h1.26l2.31,5.33,1.96-5.33Z" />
	<path class="cls-2"
		d="M98.6,188.34c-.99,0-1.85-.34-2.54-1.03-.69-.69-1.03-1.54-1.03-2.54s.34-1.85,1.03-2.54c.69-.69,1.55-1.03,2.54-1.03s1.85.34,2.54,1.03,1.05,1.54,1.05,2.54-.35,1.85-1.05,2.54-1.55,1.03-2.54,1.03ZM100.31,186.49c.46-.46.69-1.03.69-1.73s-.23-1.26-.69-1.73c-.46-.46-1.03-.69-1.71-.69s-1.24.23-1.7.69c-.46.46-.69,1.03-.69,1.73s.23,1.26.69,1.73c.46.46,1.03.69,1.7.69s1.25-.23,1.71-.69Z" />
	<path class="cls-2"
		d="M107.19,179.61c-1.2-.09-1.79.42-1.79,1.55v.2h1.79v1.14h-1.79v5.65h-1.18v-5.65h-1.09v-1.14h1.09v-.2c0-1.84,1.06-2.81,2.98-2.69v1.14Z" />
	<path class="cls-2" d="M118.37,178.65v1.2h-2.81v8.32h-1.25v-8.32h-2.8v-1.2h6.86Z" />
	<path class="cls-2"
		d="M121.98,188.34c-.99,0-1.85-.34-2.54-1.03-.69-.69-1.03-1.54-1.03-2.54s.34-1.85,1.03-2.54c.69-.69,1.55-1.03,2.54-1.03s1.85.34,2.54,1.03,1.05,1.54,1.05,2.54-.35,1.85-1.05,2.54-1.55,1.03-2.54,1.03ZM123.69,186.49c.46-.46.69-1.03.69-1.73s-.23-1.26-.69-1.73c-.46-.46-1.03-.69-1.71-.69s-1.24.23-1.7.69c-.46.46-.69,1.03-.69,1.73s.23,1.26.69,1.73c.46.46,1.03.69,1.7.69s1.25-.23,1.71-.69Z" />
	<path class="cls-2"
		d="M133.04,188.16h-1.47l-3.1-3.22v3.22h-1.18v-9.51h1.18v5.72l2.94-3h1.52l-3.25,3.29,3.36,3.51Z" />
	<path class="cls-2"
		d="M139.5,181.37h1.26l-2.77,7.22c-.58,1.54-1.66,2.39-3.02,2.3v-1.1c.83.07,1.44-.39,1.84-1.39l.12-.26-2.96-6.77h1.26l2.31,5.33,1.96-5.33Z" />
	<path class="cls-2"
		d="M145,188.34c-.99,0-1.85-.34-2.54-1.03-.69-.69-1.03-1.54-1.03-2.54s.34-1.85,1.03-2.54c.69-.69,1.55-1.03,2.54-1.03s1.85.34,2.54,1.03,1.05,1.54,1.05,2.54-.35,1.85-1.05,2.54-1.55,1.03-2.54,1.03ZM146.71,186.49c.46-.46.69-1.03.69-1.73s-.23-1.26-.69-1.73c-.46-.46-1.03-.69-1.71-.69s-1.24.23-1.7.69c-.46.46-.69,1.03-.69,1.73s.23,1.26.69,1.73c.46.46,1.03.69,1.7.69s1.25-.23,1.71-.69Z" />
	<path class="cls-2" d="M159.66,179.84h-4.21v3.09h4.04v1.2h-4.04v4.04h-1.26v-9.51h5.48v1.2Z" />
	<path class="cls-2"
		d="M160.66,186l1.09-.63c.37,1.16,1.22,1.73,2.54,1.73s2.01-.58,2.01-1.47c0-.45-.18-.79-.52-1.02-.34-.23-.92-.46-1.73-.72l-.91-.3c-.2-.08-.48-.2-.79-.35-.31-.16-.54-.33-.69-.49-.31-.34-.6-.9-.6-1.59,0-.83.29-1.48.87-1.96.58-.49,1.29-.73,2.12-.73,1.51,0,2.66.83,3.22,2.08l-1.06.61c-.41-.98-1.13-1.47-2.16-1.47s-1.73.54-1.73,1.41c0,.42.15.73.45.95.3.22.82.45,1.55.68l.56.18c.11.04.27.1.5.19.48.18.58.24.95.45.38.2.5.35.73.63.34.34.48.83.48,1.43,0,.83-.3,1.5-.91,2-.61.49-1.4.73-2.38.73-1.78,0-3.1-.88-3.6-2.34Z" />
	<path class="cls-2" d="M169.41,178.65h1.26v9.51h-1.26v-9.51Z" />
	<path class="cls-2" d="M176.79,184.56v-1.14h4.96v1.14h-4.96Z" />
	<path class="cls-2"
		d="M193.77,178.65h1.26v9.51h-1.02l-4.89-7.11v7.11h-1.26v-9.51h1.02l4.89,7.09v-7.09Z" />
	<path class="cls-2"
		d="M197.11,179.34c0-.43.35-.8.8-.8s.79.37.79.8-.35.79-.79.79-.8-.35-.8-.79ZM197.31,188.16v-6.8h1.18v6.8h-1.18Z" />
	<path class="cls-2"
		d="M206.78,182.24c.67.69,1.01,1.54,1.01,2.53s-.34,1.85-1.01,2.54c-.67.69-1.48,1.03-2.43,1.03-1.13,0-1.98-.45-2.57-1.35v3.89h-1.18v-9.51h1.18v1.17c.58-.9,1.44-1.35,2.57-1.35.95,0,1.77.35,2.43,1.05ZM205.91,186.5c.46-.48.69-1.05.69-1.74s-.23-1.26-.69-1.73c-.46-.48-1.03-.71-1.71-.71s-1.26.23-1.73.71c-.46.46-.69,1.03-.69,1.73s.23,1.26.69,1.74c.46.46,1.03.69,1.73.69s1.25-.23,1.71-.69Z" />
	<path class="cls-2"
		d="M215.7,182.24c.67.69,1.01,1.54,1.01,2.53s-.34,1.85-1.01,2.54c-.67.69-1.48,1.03-2.43,1.03-1.13,0-1.98-.45-2.57-1.35v3.89h-1.18v-9.51h1.18v1.17c.58-.9,1.44-1.35,2.57-1.35.95,0,1.77.35,2.43,1.05ZM214.83,186.5c.46-.48.69-1.05.69-1.74s-.23-1.26-.69-1.73c-.46-.48-1.03-.71-1.71-.71s-1.26.23-1.73.71c-.46.46-.69,1.03-.69,1.73s.23,1.26.69,1.74c.46.46,1.03.69,1.73.69s1.25-.23,1.71-.69Z" />
	<path class="cls-2"
		d="M221.63,188.34c-.99,0-1.85-.34-2.54-1.03-.69-.69-1.03-1.54-1.03-2.54s.34-1.85,1.03-2.54c.69-.69,1.55-1.03,2.54-1.03s1.85.34,2.54,1.03,1.05,1.54,1.05,2.54-.35,1.85-1.05,2.54-1.55,1.03-2.54,1.03ZM223.35,186.49c.46-.46.69-1.03.69-1.73s-.23-1.26-.69-1.73c-.46-.46-1.03-.69-1.71-.69s-1.24.23-1.7.69c-.46.46-.69,1.03-.69,1.73s.23,1.26.69,1.73c.46.46,1.03.69,1.7.69s1.25-.23,1.71-.69Z" />
	<path class="cls-2"
		d="M232.97,183.99v4.17h-1.18v-4.1c0-1.1-.64-1.74-1.69-1.74-1.18,0-1.97.72-1.97,2.24v3.6h-1.18v-6.8h1.18v.98c.48-.77,1.21-1.16,2.2-1.16,1.59,0,2.64,1.07,2.64,2.8Z" />
	<path class="cls-2" d="M244.28,179.84h-4.21v3.09h4.04v1.2h-4.04v4.04h-1.26v-9.51h5.48v1.2Z" />
	<path class="cls-2"
		d="M249.1,188.34c-.99,0-1.85-.34-2.54-1.03-.69-.69-1.03-1.54-1.03-2.54s.34-1.85,1.03-2.54c.69-.69,1.55-1.03,2.54-1.03s1.85.34,2.54,1.03,1.05,1.54,1.05,2.54-.35,1.85-1.05,2.54-1.55,1.03-2.54,1.03ZM250.81,186.49c.46-.46.69-1.03.69-1.73s-.23-1.26-.69-1.73c-.46-.46-1.03-.69-1.71-.69s-1.24.23-1.7.69c-.46.46-.69,1.03-.69,1.73s.23,1.26.69,1.73c.46.46,1.03.69,1.7.69s1.25-.23,1.71-.69Z" />
	<path class="cls-2"
		d="M259.12,181.37h1.18v6.8h-1.18v-.98c-.48.77-1.21,1.16-2.2,1.16-1.59,0-2.64-1.07-2.64-2.8v-4.17h1.18v4.1c0,1.1.64,1.74,1.69,1.74,1.18,0,1.97-.72,1.97-2.24v-3.6Z" />
	<path class="cls-2"
		d="M268.44,183.99v4.17h-1.18v-4.1c0-1.1-.64-1.74-1.69-1.74-1.18,0-1.97.72-1.97,2.24v3.6h-1.18v-6.8h1.18v.98c.48-.77,1.21-1.16,2.2-1.16,1.59,0,2.64,1.07,2.64,2.8Z" />
	<path class="cls-2"
		d="M276.07,178.65h1.18v9.51h-1.18v-1.17c-.58.9-1.44,1.35-2.57,1.35-.95,0-1.77-.34-2.43-1.03s-1.01-1.55-1.01-2.54.34-1.83,1.01-2.53,1.48-1.05,2.43-1.05c1.13,0,1.98.45,2.57,1.35v-3.89ZM275.38,186.5c.46-.48.69-1.05.69-1.74s-.23-1.26-.69-1.73c-.46-.48-1.03-.71-1.73-.71s-1.25.23-1.71.71c-.46.46-.69,1.03-.69,1.73s.23,1.26.69,1.74c.46.46,1.03.69,1.71.69s1.26-.23,1.73-.69Z" />
	<path class="cls-2"
		d="M284.99,181.37h1.18v6.8h-1.18v-1.17c-.58.9-1.44,1.35-2.57,1.35-.95,0-1.77-.34-2.43-1.03s-1.01-1.55-1.01-2.54.34-1.83,1.01-2.53,1.48-1.05,2.43-1.05c1.13,0,1.98.45,2.57,1.35v-1.17ZM284.3,186.5c.46-.48.69-1.05.69-1.74s-.23-1.26-.69-1.73c-.46-.48-1.03-.71-1.73-.71s-1.25.23-1.71.71c-.46.46-.69,1.03-.69,1.73s.23,1.26.69,1.74c.46.46,1.03.69,1.71.69s1.26-.23,1.73-.69Z" />
	<path class="cls-2"
		d="M291.91,182.51h-1.81v3.68c0,1.05.6.97,1.81.91v1.06c-2.07.27-2.99-.29-2.99-1.97v-3.68h-1.35v-1.14h1.35v-1.55l1.18-.35v1.9h1.81v1.14Z" />
	<path class="cls-2"
		d="M293.25,179.34c0-.43.35-.8.8-.8s.79.37.79.8-.35.79-.79.79-.8-.35-.8-.79ZM293.45,188.16v-6.8h1.18v6.8h-1.18Z" />
	<path class="cls-2"
		d="M299.9,188.34c-.99,0-1.85-.34-2.54-1.03-.69-.69-1.03-1.54-1.03-2.54s.34-1.85,1.03-2.54c.69-.69,1.55-1.03,2.54-1.03s1.85.34,2.54,1.03,1.05,1.54,1.05,2.54-.35,1.85-1.05,2.54-1.55,1.03-2.54,1.03ZM301.61,186.49c.46-.46.69-1.03.69-1.73s-.23-1.26-.69-1.73c-.46-.46-1.03-.69-1.71-.69s-1.24.23-1.7.69c-.46.46-.69,1.03-.69,1.73s.23,1.26.69,1.73c.46.46,1.03.69,1.7.69s1.25-.23,1.71-.69Z" />
	<path class="cls-2"
		d="M311.23,183.99v4.17h-1.18v-4.1c0-1.1-.64-1.74-1.69-1.74-1.18,0-1.97.72-1.97,2.24v3.6h-1.18v-6.8h1.18v.98c.48-.77,1.21-1.16,2.2-1.16,1.59,0,2.64,1.07,2.64,2.8Z" />
	<path class="cls-2"
		d="M322.06,188.16l-2.13-3.64h-2.24v3.64h-1.26v-9.51h3.81c.82,0,1.51.29,2.09.87.58.57.87,1.26.87,2.08,0,.61-.19,1.18-.56,1.69-.37.5-.83.87-1.41,1.07l2.24,3.81h-1.4ZM317.68,179.83v3.55h2.54c.48,0,.87-.18,1.2-.52.34-.35.5-.78.5-1.26s-.16-.91-.5-1.25c-.33-.34-.72-.52-1.2-.52h-2.54Z" />
	<path class="cls-2"
		d="M325.66,185.31c.23,1.21,1.17,1.92,2.46,1.92.9,0,1.55-.33,1.96-.99l1.01.57c-.67,1.02-1.66,1.54-2.99,1.54-1.07,0-1.96-.34-2.64-1.01-.67-.68-1.01-1.54-1.01-2.57s.33-1.88.99-2.55c.67-.68,1.52-1.02,2.57-1.02.99,0,1.81.35,2.43,1.06.64.69.95,1.54.95,2.53,0,.18-.01.35-.04.53h-5.69ZM325.66,184.27h4.54c-.2-1.29-1.1-1.97-2.19-1.97-1.26,0-2.15.77-2.35,1.97Z" />
	<path class="cls-2"
		d="M335.37,184.22c1.06.23,2.47.63,2.46,2.08,0,.61-.24,1.12-.72,1.48-.48.37-1.07.56-1.82.56-1.32,0-2.31-.63-2.7-1.59l1.02-.58c.22.65.86,1.06,1.69,1.06.78,0,1.35-.29,1.35-.92,0-.53-.6-.83-1.35-1.01-1.07-.29-2.46-.64-2.46-2.08,0-.58.23-1.07.68-1.45.46-.38,1.03-.57,1.73-.57,1.1,0,2.01.53,2.45,1.41l-.99.56c-.24-.58-.73-.87-1.45-.87-.67,0-1.21.33-1.21.91,0,.53.6.82,1.35,1.02Z" />
	<path class="cls-2"
		d="M340.3,185.31c.23,1.21,1.17,1.92,2.46,1.92.9,0,1.55-.33,1.96-.99l1.01.57c-.67,1.02-1.66,1.54-2.99,1.54-1.07,0-1.96-.34-2.64-1.01-.67-.68-1.01-1.54-1.01-2.57s.33-1.88.99-2.55c.67-.68,1.52-1.02,2.57-1.02.99,0,1.81.35,2.43,1.06.64.69.95,1.54.95,2.53,0,.18-.01.35-.04.53h-5.69ZM340.3,184.27h4.54c-.2-1.29-1.1-1.97-2.19-1.97-1.26,0-2.15.77-2.35,1.97Z" />
	<path class="cls-2"
		d="M353.36,181.37h1.18v6.8h-1.18v-1.17c-.58.9-1.44,1.35-2.57,1.35-.95,0-1.77-.34-2.43-1.03s-1.01-1.55-1.01-2.54.34-1.83,1.01-2.53,1.48-1.05,2.43-1.05c1.13,0,1.98.45,2.57,1.35v-1.17ZM352.67,186.5c.46-.48.69-1.05.69-1.74s-.23-1.26-.69-1.73c-.46-.48-1.03-.71-1.73-.71s-1.25.23-1.71.71c-.46.46-.69,1.03-.69,1.73s.23,1.26.69,1.74c.46.46,1.03.69,1.71.69s1.26-.23,1.73-.69Z" />
	<path class="cls-2"
		d="M357.84,182.51c.39-.84,1.1-1.26,2.12-1.26v1.24c-.58-.03-1.07.12-1.5.46s-.63.87-.63,1.62v3.6h-1.18v-6.8h1.18v1.14Z" />
	<path class="cls-2"
		d="M361.85,187.32c-.68-.69-1.02-1.54-1.02-2.56s.34-1.86,1.02-2.54c.68-.69,1.54-1.03,2.56-1.03,1.35,0,2.47.69,3,1.78l-.99.57c-.34-.72-1.1-1.2-2.01-1.2-.68,0-1.25.23-1.71.69-.45.46-.68,1.03-.68,1.73s.23,1.25.68,1.71c.46.46,1.03.69,1.71.69.91,0,1.67-.46,2.05-1.18l1.01.58c-.58,1.07-1.74,1.77-3.06,1.77-1.02,0-1.88-.34-2.56-1.02Z" />
	<path class="cls-2"
		d="M374.99,183.99v4.17h-1.18v-4.1c0-1.1-.64-1.74-1.69-1.74-1.18,0-1.97.72-1.97,2.24v3.6h-1.18v-9.51h1.18v3.7c.48-.77,1.21-1.16,2.2-1.16,1.59,0,2.64,1.07,2.64,2.8Z" />
	<path class="cls-2"
		d="M384.28,178.65c.88,0,1.6.3,2.19.88.58.58.88,1.3.88,2.17s-.3,1.59-.88,2.18c-.58.58-1.3.88-2.19.88h-2.19v3.4h-1.26v-9.51h3.45ZM384.28,183.58c.53,0,.96-.18,1.3-.53.34-.37.52-.82.52-1.35,0-1.09-.77-1.87-1.82-1.87h-2.19v3.75h2.19Z" />
	<path class="cls-2"
		d="M390.04,182.51c.39-.84,1.1-1.26,2.12-1.26v1.24c-.58-.03-1.07.12-1.5.46s-.63.87-.63,1.62v3.6h-1.18v-6.8h1.18v1.14Z" />
	<path class="cls-2"
		d="M396.6,188.34c-.99,0-1.85-.34-2.54-1.03-.69-.69-1.03-1.54-1.03-2.54s.34-1.85,1.03-2.54c.69-.69,1.55-1.03,2.54-1.03s1.85.34,2.54,1.03,1.05,1.54,1.05,2.54-.35,1.85-1.05,2.54-1.55,1.03-2.54,1.03ZM398.31,186.49c.46-.46.69-1.03.69-1.73s-.23-1.26-.69-1.73c-.46-.46-1.03-.69-1.71-.69s-1.24.23-1.7.69c-.46.46-.69,1.03-.69,1.73s.23,1.26.69,1.73c.46.46,1.03.69,1.7.69s1.25-.23,1.71-.69Z" />
	<path class="cls-2"
		d="M402,181.37h1.18v7.2c0,1.75-.9,2.61-2.62,2.49v-1.14c.99.1,1.44-.3,1.44-1.35v-7.2ZM401.8,179.34c0-.43.35-.8.8-.8s.79.37.79.8-.35.79-.79.79-.8-.35-.8-.79Z" />
	<path class="cls-2"
		d="M406.1,185.31c.23,1.21,1.17,1.92,2.46,1.92.9,0,1.55-.33,1.96-.99l1.01.57c-.67,1.02-1.66,1.54-2.99,1.54-1.07,0-1.96-.34-2.64-1.01-.67-.68-1.01-1.54-1.01-2.57s.33-1.88.99-2.55c.67-.68,1.52-1.02,2.57-1.02.99,0,1.81.35,2.43,1.06.64.69.95,1.54.95,2.53,0,.18-.01.35-.04.53h-5.69ZM406.1,184.27h4.54c-.2-1.29-1.1-1.97-2.19-1.97-1.26,0-2.15.77-2.35,1.97Z" />
	<path class="cls-2"
		d="M414.17,187.32c-.68-.69-1.02-1.54-1.02-2.56s.34-1.86,1.02-2.54c.68-.69,1.54-1.03,2.56-1.03,1.35,0,2.47.69,3,1.78l-.99.57c-.34-.72-1.1-1.2-2.01-1.2-.68,0-1.25.23-1.71.69-.45.46-.68,1.03-.68,1.73s.23,1.25.68,1.71c.46.46,1.03.69,1.71.69.91,0,1.67-.46,2.05-1.18l1.01.58c-.58,1.07-1.74,1.77-3.06,1.77-1.02,0-1.88-.34-2.56-1.02Z" />
	<path class="cls-2"
		d="M425.14,182.51h-1.81v3.68c0,1.05.6.97,1.81.91v1.06c-2.07.27-2.99-.29-2.99-1.97v-3.68h-1.35v-1.14h1.35v-1.55l1.18-.35v1.9h1.81v1.14Z" />
	<path class="cls-2"
		d="M433.84,188.34c-.99,0-1.85-.34-2.54-1.03-.69-.69-1.03-1.54-1.03-2.54s.34-1.85,1.03-2.54c.69-.69,1.55-1.03,2.54-1.03s1.85.34,2.54,1.03,1.05,1.54,1.05,2.54-.35,1.85-1.05,2.54-1.55,1.03-2.54,1.03ZM435.56,186.49c.46-.46.69-1.03.69-1.73s-.23-1.26-.69-1.73c-.46-.46-1.03-.69-1.71-.69s-1.24.23-1.7.69c-.46.46-.69,1.03-.69,1.73s.23,1.26.69,1.73c.46.46,1.03.69,1.7.69s1.25-.23,1.71-.69Z" />
	<path class="cls-2"
		d="M445.18,183.99v4.17h-1.18v-4.1c0-1.1-.64-1.74-1.69-1.74-1.18,0-1.97.72-1.97,2.24v3.6h-1.18v-6.8h1.18v.98c.48-.77,1.21-1.16,2.2-1.16,1.59,0,2.64,1.07,2.64,2.8Z" />
	<path class="cls-2"
		d="M459.92,178.65v9.51h-1.25v-7.43l-3.11,5.18h-.16l-3.11-5.16v7.42h-1.26v-9.51h1.43l3.03,5.03,3.02-5.03h1.43Z" />
	<path class="cls-2"
		d="M467.81,181.37h1.18v6.8h-1.18v-1.17c-.58.9-1.44,1.35-2.57,1.35-.95,0-1.77-.34-2.43-1.03s-1.01-1.55-1.01-2.54.34-1.83,1.01-2.53,1.48-1.05,2.43-1.05c1.13,0,1.98.45,2.57,1.35v-1.17ZM467.12,186.5c.46-.48.69-1.05.69-1.74s-.23-1.26-.69-1.73c-.46-.48-1.03-.71-1.73-.71s-1.25.23-1.71.71c-.46.46-.69,1.03-.69,1.73s.23,1.26.69,1.74c.46.46,1.03.69,1.71.69s1.26-.23,1.73-.69Z" />
	<path class="cls-2"
		d="M472.29,182.51c.39-.84,1.1-1.26,2.12-1.26v1.24c-.58-.03-1.07.12-1.5.46s-.63.87-.63,1.62v3.6h-1.18v-6.8h1.18v1.14Z" />
	<path class="cls-2"
		d="M475.6,179.34c0-.43.35-.8.8-.8s.79.37.79.8-.35.79-.79.79-.8-.35-.8-.79ZM475.81,188.16v-6.8h1.18v6.8h-1.18Z" />
	<path class="cls-2"
		d="M485.12,183.99v4.17h-1.18v-4.1c0-1.1-.64-1.74-1.69-1.74-1.18,0-1.97.72-1.97,2.24v3.6h-1.18v-6.8h1.18v.98c.48-.77,1.21-1.16,2.2-1.16,1.59,0,2.64,1.07,2.64,2.8Z" />
	<path class="cls-2"
		d="M487.96,185.31c.23,1.21,1.17,1.92,2.46,1.92.9,0,1.55-.33,1.96-.99l1.01.57c-.67,1.02-1.66,1.54-2.99,1.54-1.07,0-1.96-.34-2.64-1.01-.67-.68-1.01-1.54-1.01-2.57s.33-1.88.99-2.55c.67-.68,1.52-1.02,2.57-1.02.99,0,1.81.35,2.43,1.06.64.69.95,1.54.95,2.53,0,.18-.01.35-.04.53h-5.69ZM487.96,184.27h4.54c-.2-1.29-1.1-1.97-2.19-1.97-1.26,0-2.15.77-2.35,1.97Z" />
	<path class="cls-2"
		d="M502.7,178.65c.88,0,1.6.3,2.19.88.58.58.88,1.3.88,2.17s-.3,1.59-.88,2.18c-.58.58-1.3.88-2.19.88h-2.19v3.4h-1.26v-9.51h3.45ZM502.7,183.58c.53,0,.96-.18,1.3-.53.34-.37.52-.82.52-1.35,0-1.09-.77-1.87-1.82-1.87h-2.19v3.75h2.19Z" />
	<path class="cls-2" d="M507.27,188.16v-9.92h1.18v9.92h-1.18Z" />
	<path class="cls-2"
		d="M516.2,181.37h1.18v6.8h-1.18v-1.17c-.58.9-1.44,1.35-2.57,1.35-.95,0-1.77-.34-2.43-1.03s-1.01-1.55-1.01-2.54.34-1.83,1.01-2.53,1.48-1.05,2.43-1.05c1.13,0,1.98.45,2.57,1.35v-1.17ZM515.5,186.5c.46-.48.69-1.05.69-1.74s-.23-1.26-.69-1.73c-.46-.48-1.03-.71-1.73-.71s-1.25.23-1.71.71c-.46.46-.69,1.03-.69,1.73s.23,1.26.69,1.74c.46.46,1.03.69,1.71.69s1.26-.23,1.73-.69Z" />
	<path class="cls-2"
		d="M521.83,184.22c1.06.23,2.47.63,2.46,2.08,0,.61-.24,1.12-.72,1.48-.48.37-1.07.56-1.82.56-1.32,0-2.31-.63-2.7-1.59l1.02-.58c.22.65.86,1.06,1.69,1.06.78,0,1.35-.29,1.35-.92,0-.53-.6-.83-1.35-1.01-1.07-.29-2.46-.64-2.46-2.08,0-.58.23-1.07.68-1.45.46-.38,1.03-.57,1.73-.57,1.1,0,2.01.53,2.45,1.41l-.99.56c-.24-.58-.73-.87-1.45-.87-.67,0-1.21.33-1.21.91,0,.53.6.82,1.35,1.02Z" />
	<path class="cls-2"
		d="M529.74,182.51h-1.81v3.68c0,1.05.6.97,1.81.91v1.06c-2.07.27-2.99-.29-2.99-1.97v-3.68h-1.35v-1.14h1.35v-1.55l1.18-.35v1.9h1.81v1.14Z" />
	<path class="cls-2"
		d="M531.08,179.34c0-.43.35-.8.8-.8s.79.37.79.8-.35.79-.79.79-.8-.35-.8-.79ZM531.28,188.16v-6.8h1.18v6.8h-1.18Z" />
	<path class="cls-2"
		d="M535.17,187.32c-.68-.69-1.02-1.54-1.02-2.56s.34-1.86,1.02-2.54c.68-.69,1.54-1.03,2.56-1.03,1.34,0,2.47.69,3,1.78l-.99.57c-.34-.72-1.1-1.2-2.01-1.2-.68,0-1.25.23-1.71.69-.45.46-.68,1.03-.68,1.73s.23,1.25.68,1.71c.46.46,1.03.69,1.71.69.91,0,1.67-.46,2.05-1.18l1.01.58c-.58,1.07-1.74,1.77-3.06,1.77-1.02,0-1.88-.34-2.56-1.02Z" />
	<path class="cls-2"
		d="M544.77,184.22c1.06.23,2.47.63,2.46,2.08,0,.61-.24,1.12-.72,1.48-.48.37-1.07.56-1.82.56-1.32,0-2.31-.63-2.7-1.59l1.02-.58c.22.65.86,1.06,1.69,1.06.78,0,1.35-.29,1.35-.92,0-.53-.6-.83-1.35-1.01-1.07-.29-2.46-.64-2.46-2.08,0-.58.23-1.07.68-1.45.46-.38,1.03-.57,1.73-.57,1.1,0,2.01.53,2.45,1.41l-.99.56c-.24-.58-.73-.87-1.45-.87-.67,0-1.21.33-1.21.91,0,.53.6.82,1.35,1.02Z" />
</svg>