<svg id="mv_sp.svg" xmlns="http://www.w3.org/2000/svg" width="660.938" height="226.75" viewBox="0 0 660.938 226.75">
  <defs>
    <style>
      .cls-1 {
        fill: #fff;
        fill-rule: evenodd;
      }
    </style>
  </defs>
  <path id="東京大学_-日本財団_のコピー" data-name="東京大学 -日本財団 のコピー" class="cls-1" d="M44.782,193.16v1.558H39.364V193.16h5.418Zm0-5.27v1.522H39.364V187.89h5.418Zm11.43,1.522H50.571V187.89h5.641v1.522Zm-5.641,5.306V193.16h5.641v1.558H50.571Zm11.318-10.873H50.571V182.25H64.895v-5.159H50.571V174.2H44.782v2.894H30.828v5.159H44.782v1.595H33.946V198.8h6.9a32.314,32.314,0,0,1-11.207,6.532,21.724,21.724,0,0,1,3.785,4.638,33.507,33.507,0,0,0,11.356-7.978V210.3h5.789v-8.535a34.922,34.922,0,0,0,11.578,8.276,19.906,19.906,0,0,1,3.971-4.825,33.329,33.329,0,0,1-11.467-6.42h7.236V183.845Zm29.606-6.382V174.2H85.557v3.266H71.641v5.269h33.918v-5.269H91.495Zm-17.664,25.03a20.119,20.119,0,0,1-3.525,3.284,28.255,28.255,0,0,1,4.527,3.229,33.966,33.966,0,0,0,7.311-8.5L76.5,198.726A21.859,21.859,0,0,1,73.831,202.493Zm22.006-12.9v3.34H81.29V189.6H95.837Zm5.863-4.713H75.8V197.65h9.871v6.9A0.5,0.5,0,0,1,85.5,205a1.293,1.293,0,0,1-.649.111q-1.262.075-4.564-.074a18.541,18.541,0,0,1,1.707,5.269q5.158,0,7.088-.779a3.379,3.379,0,0,0,1.892-1.651,7.526,7.526,0,0,0,.52-3.136V197.65H101.7V184.884Zm-0.668,24.53,5.492-2.746a59.381,59.381,0,0,0-6.717-8.016l-5.084,2.412a50.11,50.11,0,0,1,6.309,8.35h0Zm45.526-25.346H131.974q0.3-3.3.371-9.871h-6.086q-0.075,7.682-.26,9.871H112.491v5.715h12.58a22,22,0,0,1-13.322,15.66,15.642,15.642,0,0,1,4.156,4.713A26.2,26.2,0,0,0,129.6,195.312a33.152,33.152,0,0,0,5.622,8.925,24.632,24.632,0,0,0,8.182,5.919,20.647,20.647,0,0,1,4.082-5.232q-9.723-3.786-13.841-15.141h12.914v-5.715Zm35.209,0.854v4.935h5.455V180.1h-4.6q1.113-1.41,2.857-3.9l-6.049-1.707a28.232,28.232,0,0,1-2.894,5.6H171.3l2.078-.779a18.764,18.764,0,0,0-2.931-5.344l-4.9,1.819a25.039,25.039,0,0,1,2.153,4.3h-5.01l1.484-.668a17.525,17.525,0,0,0-3.377-4.861l-4.713,2.078a26.137,26.137,0,0,1,2.3,3.451h-4.824v9.76h5.195v-4.935h23.008Zm-7.31,10.836a37.09,37.09,0,0,0,6.828-6.086l-3.452-2.635-1.187.26H160.318v4.75h11.467a23.091,23.091,0,0,1-1.856,1.447h-2.412v2.264h-14.25V200.8h14.25v3.637a0.6,0.6,0,0,1-.2.52,1.38,1.38,0,0,1-.761.148q-3.785,0-5.9-.111a18.36,18.36,0,0,1,2.189,5.343q5.492,0,7.682-.816a3.85,3.85,0,0,0,2.078-1.707,6.922,6.922,0,0,0,.594-3.191V200.8h14.324v-5.046H174.457Zm47.114,2.375v-4.862H208.434v4.862h13.137Zm17.062-3.786h15.772v7.422H238.633v-7.422Zm15.772-5.455H238.633v-6.976h15.772v6.976Zm-21.486,20.967h5.714v-2.523h15.772v2.523h5.975v-33.51H232.919v33.51Zm57.438-17.738a44.36,44.36,0,0,0,4.6,6.531h-4.6v-6.531Zm-5.9.111v6.42H280a46.926,46.926,0,0,0,4.453-6.42h0Zm19.965-10.984H290.357V174.2h-5.9v7.051H270.5v5.6h10.762a37.442,37.442,0,0,1-5.4,7.812,27.549,27.549,0,0,1-6.958,5.7,25.605,25.605,0,0,1,4.045,4.6,32.23,32.23,0,0,0,5.492-4.6v3.9h6.012V210.3h5.9v-6.048h5.714v-4.342a31.7,31.7,0,0,0,5.827,4.9,23.354,23.354,0,0,1,2-2.672,18.912,18.912,0,0,1,2.3-2.338,29.529,29.529,0,0,1-7.069-5.492,35.234,35.234,0,0,1-5.511-7.459h10.8v-5.6Zm8.138,23.045a14.337,14.337,0,0,1-2.8,2.968,22.513,22.513,0,0,1,4.416,3.118,22.871,22.871,0,0,0,5.678-8.461l-5.269-1.336A16.548,16.548,0,0,1,312.559,204.293Zm4.991-21.561v-2.709H321.6v2.709H317.55Zm0,6.754V186.74H321.6v2.746H317.55Zm0,6.754v-2.746H321.6v2.746H317.55Zm25.123-13.1v-8.795h-5.455v8.795h-9.351v5.084h7.459a37.744,37.744,0,0,1-3.693,6.532,26.421,26.421,0,0,1-4.62,5.121v-24.2H312.392v24.9h11.5l-4.23,1.855a24.644,24.644,0,0,1,4.044,6.531l4.639-2.3a24.693,24.693,0,0,0-4.193-6.086h2.6a21.419,21.419,0,0,1,3.415,3.785,32.976,32.976,0,0,0,7.05-9.2v9.092a0.688,0.688,0,0,1-.779.779q-2.115,0-3.674-.074a15.607,15.607,0,0,1,1.893,5.38q4.266,0,6.086-1.113a3.551,3.551,0,0,0,1.5-1.818,9.228,9.228,0,0,0,.426-3.117V188.224h3.674V183.14h-3.674Zm21.479,14.77,4.045-2.264a19.5,19.5,0,0,0-3.97-5.826l-3.749,2.115a19.682,19.682,0,0,1,3.674,5.975h0Zm11.133-12.988v-3.155H370.2v3.155h-10.91v4.638H370.2v8.313a0.593,0.593,0,0,1-.705.631q-2.3,0-3.674-.075a17.837,17.837,0,0,1,1.41,4.6q4.489,0,6.123-.779a2.883,2.883,0,0,0,1.522-1.485,7.292,7.292,0,0,0,.408-2.746V189.56h3.674v-4.638h-3.674Zm-17.107-3.86h21.746v22.451H358.178V181.062Zm-5.493,29.168h5.493v-1.447h21.746v1.447h5.752V175.756H352.685V210.23Z" transform="translate(-29.656 -173.969)"/>
  <path id="FSI_海洋ゴミ対策プロジェクト_2019-2021_のコピー" data-name="FSI 海洋ゴミ対策プロジェクト （2019-2021） のコピー" class="cls-1" d="M29.742,263.665h7.477V250.517H48.949v-5.629H37.219v-7.305H49.852v-6.058H29.742v32.14Zm49.191-30.808a24.587,24.587,0,0,0-9.711-1.762q-5.372,0-8.25,2.406a8.065,8.065,0,0,0-2.879,6.531,8.985,8.985,0,0,0,2.471,6.4q2.47,2.62,8.014,4.383a6.529,6.529,0,0,1,2.9,1.568,3.414,3.414,0,0,1,.838,2.385,3.032,3.032,0,0,1-1.2,2.578,5.9,5.9,0,0,1-3.566.9,15.167,15.167,0,0,1-8.637-2.793v6.36a18.071,18.071,0,0,0,9.109,2.277q11.9,0,11.9-9.453a9.018,9.018,0,0,0-2.342-6.467q-2.343-2.471-8.443-4.318-3.524-1.118-3.523-3.825,0-3.179,4.082-3.179a20.333,20.333,0,0,1,9.238,2.32v-6.316Zm18.6,30.808v-32.14H89.323v32.14H97.53Zm30.662-37.383-3.566,4.641a26.691,26.691,0,0,1,7.133,4.6l3.824-5.114a27.33,27.33,0,0,0-7.391-4.125h0Zm-2.019,11.731-3.481,4.726a24.291,24.291,0,0,1,7,4.383l3.781-5.156a26.185,26.185,0,0,0-7.3-3.953h0Zm8.55,15.254-5.113-3.524a120.83,120.83,0,0,1-6.23,14.266l5.8,3.48q3.094-6.96,5.543-14.222h0Zm17.618-.387h3.222q-0.043.774-.172,2.063t-0.129,1.332h-3.308q0.214-1.8.387-3.395h0Zm-5.457,0q-0.172,1.59-.387,3.395h-2.922l0.43-3.395h2.879Zm0.773-8.808-0.129,1.525q-0.087,1.01-.129,1.525h-2.707l0.344-3.05h2.621Zm5.2,3.05,0.215-3.05h2.965l-0.129,3.05h-3.051Zm11.946,0h-3.094q0.129-2.706.258-5.929,0.042-.687.086-2.536H141.641q0.816-1.289,1.332-2.234h20.84v-5.672H145.466q0.943-2.749,1.117-3.394l-6.274-1.375q-2.191,8.421-6.875,12.847a25.694,25.694,0,0,1,5.371,3.653q0.429-.429.645-0.688-0.087,1.032-.344,3.008t-0.3,2.32h-4.339v5.758h3.609q-0.645,4.813-1.719,10.57l6.059,0.387,0.387-2.148h11.429a0.745,0.745,0,0,1-.215.386,1.915,1.915,0,0,1-1.589.774q-1.2,0-4.125-.215a11.029,11.029,0,0,1,1.5,5.156,26,26,0,0,0,5.586-.172,5.457,5.457,0,0,0,3.782-2.277,9.282,9.282,0,0,0,1.246-3.652H164.2v-5.414h-3.051q0.129-1.633.258-3.395H164.8v-5.758Zm11.378-20.968-3.481,4.683a44.407,44.407,0,0,1,4.6,2.385,19.641,19.641,0,0,1,3.566,2.557l3.739-5.2a27.457,27.457,0,0,0-8.422-4.425h0Zm-2.922,11.816-3.309,4.812a30.4,30.4,0,0,1,8.207,4.813l3.61-5.285a31.385,31.385,0,0,0-8.508-4.34h0Zm27.586,14.953v-3.566h8.379v-5.93h-8.379v-3.438h10.183v-5.972h-4.6q1.459-2.362,3.351-6.016l-6.918-2.019a32.944,32.944,0,0,1-3.136,7.347l2.062,0.688h-7.82l1.89-.817a22.439,22.439,0,0,0-3.953-7.046l-5.8,2.32a26.6,26.6,0,0,1,2.965,5.543h-4.383v5.972h9.54v3.438h-8.036v5.93h8.036v3.566h-10.4v0.215l-4.3-3.738a122.218,122.218,0,0,1-8.035,13.75l5.5,4.168q4.038-6.918,6.832-12.719v4.426h10.4v8.851h6.617v-8.851h10.914v-6.1H200.844ZM237.874,239v17.961H218.452v6.746h26.469V228.431H242v3.824H218.452V239h19.422Zm11.731-4.383v-6.187H246.64v6.187h2.965Zm17.007-2.879H256.084v6.747h10.528q4.167,0.042,7.455.365t7.154,1.01V233.2a79.528,79.528,0,0,0-14.609-1.461h0Zm-1.332,12.375h-8.164v6.747h8.164a72.413,72.413,0,0,1,7.455.343q3.286,0.345,7.154,1.032v-6.661a74.782,74.782,0,0,0-14.609-1.461h0Zm2.148,12.977h-12.16v6.746h12.16a71.609,71.609,0,0,1,7.412.344q3.288,0.344,7.155,1.031v-6.66a78.819,78.819,0,0,0-14.567-1.461h0Zm31.7-10.227q-2.577-3.006-5.242-5.886l-4.511,3.652a111.188,111.188,0,0,1,7.046,8.637,23.055,23.055,0,0,1-8.894,9.238A30.375,30.375,0,0,1,289.892,265a19.28,19.28,0,0,1,1.934,2.535,29.726,29.726,0,0,0,8.422-8.679,33.943,33.943,0,0,1,2.621,4.855l5.07-4.34a47.011,47.011,0,0,0-4.34-6.918,60.209,60.209,0,0,0,3.438-12.332l-6.188-.859a49.372,49.372,0,0,1-1.719,7.605h0Zm12.891,9.5,5.5-2.836a30.868,30.868,0,0,0-4.855-9.153l-5.114,2.535a31.965,31.965,0,0,1,4.469,9.454h0Zm13.363-20.926v-9.41h-6.359v9.41h-8.938v-2.879h-7.82v-6.445h-6.1v6.445h-7.305v5.887h19.723v3.093h10.441v18.52a0.816,0.816,0,0,1-.988.988q-2.364,0-5.414-.172a23.117,23.117,0,0,1,1.976,6.918q6.144,0,8.379-1.332a4.221,4.221,0,0,0,1.891-2.256,12.7,12.7,0,0,0,.515-4.1V241.536h4.383v-6.1h-4.383Zm41.8,15.125v1.762a0.619,0.619,0,0,1-.773.6q-2.751,0-3.566-.086a26.171,26.171,0,0,1,1.718,3.867,22.024,22.024,0,0,1-4.125-2.578V250.56h6.746ZM351.8,237.111a25.362,25.362,0,0,0-1.289-2.579h3.953a3.16,3.16,0,0,1-.28.237,3.165,3.165,0,0,0-.279.236q1.161,0.689,1.934,1.16H353.52v2.149h-4.941Zm-5.844,1.2H340.8a39.9,39.9,0,0,0,3.136-3.782h0.086a29.784,29.784,0,0,1,1.934,3.782h0Zm14.48-.9a25.71,25.71,0,0,0,2.149-2.879h1.461q1.589,2.923,1.933,3.782h-5.543v-0.9Zm0,7.778v-1.418h15.426v-5.457H367.7l4.125-1.332a18.092,18.092,0,0,0-1.246-2.45h6.1v-5.285H365.466q0.3-.687.816-2.062l-6.23-1.547a21.515,21.515,0,0,1-4.254,7.519v-3.91h-8.68q0.516-.987.9-1.933l-6.1-1.676a23.781,23.781,0,0,1-2.836,5.2,20.159,20.159,0,0,1-3.867,4.168,30.284,30.284,0,0,1,5.07,3.309h-3.309v5.457H353.52v1.418H339.641v12.718h6.832V250.56h7.047v2.707a23.943,23.943,0,0,1-7.433,5.049,42.075,42.075,0,0,1-10.184,3.115,21.484,21.484,0,0,1,3.953,5.371,34.716,34.716,0,0,0,13.664-6.7v7.734h6.918v-7.605a35.166,35.166,0,0,0,13.063,6.23,23.727,23.727,0,0,1,4.082-5.672,45.738,45.738,0,0,1-10.914-3.05,14.271,14.271,0,0,0,4.769-.817,3.432,3.432,0,0,0,1.848-1.59,6.917,6.917,0,0,0,.516-3.007v-7.133H360.438Zm51.834-12.032a2.111,2.111,0,0,1-1.526.6,2.056,2.056,0,0,1-2.1-2.1,2.094,2.094,0,0,1,.6-1.547,2.042,2.042,0,0,1,1.5-.6,2.115,2.115,0,0,1,1.526.6,2.061,2.061,0,0,1,.623,1.547A2.007,2.007,0,0,1,412.272,233.157Zm-6.252-1.5H384.277v6.875H404a24.6,24.6,0,0,1-1.805,9.044,15.461,15.461,0,0,1-4.1,5.651,17.816,17.816,0,0,1-5.049,3.072,28.865,28.865,0,0,1-5.973,1.483v6.875a12.163,12.163,0,0,0,1.7-.194,27.594,27.594,0,0,0,4.275-1.074,30.523,30.523,0,0,0,5.543-2.471,21.584,21.584,0,0,0,5.543-4.576,26.393,26.393,0,0,0,4.512-7.5,29.342,29.342,0,0,0,1.976-10.871v-1.59h0.129a4.632,4.632,0,0,0,3.373-1.375,4.525,4.525,0,0,0,1.4-3.351,4.77,4.77,0,0,0-8.121-3.4,4.7,4.7,0,0,0-1.375,3.4h0Zm35.569,25.308H428.613V239h12.976v17.961Zm7.047-24.707H421.609v31.453h27.027V232.255Zm34.452,5.113v-6.187h-2.964v6.187h2.964Zm4.641,0v-6.187h-2.965v6.187h2.965Zm-7.219,1.676a32.687,32.687,0,0,1-4.447,9.217,26.6,26.6,0,0,1-5.479,5.564,18.116,18.116,0,0,1-5.65,2.965,21.46,21.46,0,0,1-4.4.881,13.654,13.654,0,0,1-1.762.065v7a21.239,21.239,0,0,0,2.256-.15,27.412,27.412,0,0,0,5.693-1.31,28.544,28.544,0,0,0,7.369-3.8,32.188,32.188,0,0,0,7.5-7.627,39.033,39.033,0,0,0,5.758-12.8H480.51Zm-9.152-.988V231.31h-12.59v6.746h12.59Zm0,10.441v-6.746h-12.59V248.5h12.59Zm32.476-5.242v15.3h-9.11v5.715h24.063v-5.715h-8.981v-15.3h8.207V237.54h-22.6v5.715h8.422Zm29.983-13.535a24.449,24.449,0,0,1-1.783,5.908,30.167,30.167,0,0,1-2.342,4.19,13.428,13.428,0,0,1-2.127,2.556,11.13,11.13,0,0,1-.966.8v8.293a9.106,9.106,0,0,0,1.654-1.074,31.86,31.86,0,0,0,3.931-3.524,39.527,39.527,0,0,0,4.856-6.273h9.926a22.822,22.822,0,0,1-2.17,7.863,19.291,19.291,0,0,1-4.233,5.457,21.863,21.863,0,0,1-5.027,3.524,24.831,24.831,0,0,1-4.061,1.611,11.223,11.223,0,0,1-1.7.408v6.961a10.752,10.752,0,0,0,1.633-.322,30.564,30.564,0,0,0,4.1-1.354,40.731,40.731,0,0,0,5.414-2.664,28.009,28.009,0,0,0,5.671-4.425,23.889,23.889,0,0,0,4.749-7.026,29.274,29.274,0,0,0,2.449-9.861v-6.574H539.661q0.258-1.032.516-2.149t0.429-2.32h-6.789ZM570.5,265.9V248.239h18.047v-6.746H570.5v-11.6h-6.789V265.9H570.5ZM52.43,318.858a28.432,28.432,0,0,0,7.3,9.5h6.188Q56.6,319.374,56.6,307.3q0-11.472,9.324-21.012H59.734a30.951,30.951,0,0,0-7.24,9.6A25.79,25.79,0,0,0,49.809,307.3,26.545,26.545,0,0,0,52.43,318.858Zm44.12-11.3A12.815,12.815,0,0,0,99,300.123a8.85,8.85,0,0,0-2.879-7q-2.879-2.534-8.207-2.535a27.84,27.84,0,0,0-10.141,1.848v6.832a22.98,22.98,0,0,1,9.023-2.449q4.512,0,4.512,4.039a10.006,10.006,0,0,1-2.75,6.359q-2.75,3.265-11.43,9.926v6.016h22v-6.016H86.968v-0.086Q94.1,311.082,96.55,307.557Zm10.519-.473q0,8.766,3.136,12.633t9.6,3.867q6.467,0,9.625-3.867t3.158-12.633q0-8.765-3.158-12.633t-9.625-3.867q-6.468,0-9.561,3.867Q107.068,298.319,107.069,307.084Zm7.605,0.022q0-5.994,1.246-8.422a4.105,4.105,0,0,1,3.889-2.428,4.148,4.148,0,0,1,3.91,2.428q1.267,2.428,1.268,8.422t-1.268,8.4a4.149,4.149,0,0,1-3.91,2.406,4.019,4.019,0,0,1-3.846-2.406Q114.675,313.1,114.674,307.106Zm26.933-9.9v8.207l8.465-6.144h0.043v23.891h7.777V291.014h-7.777Zm32.476,25.524a32.717,32.717,0,0,0,7.347.859q14.4,0,14.395-18.906,0-6.962-3.244-10.527t-9.174-3.567q-5.715,0-9.045,2.965a10.217,10.217,0,0,0-3.33,8.035q0,5.372,2.793,8.186t8.035,2.814a10.358,10.358,0,0,0,6.531-1.933l0.129,0.043a8.3,8.3,0,0,1-2.105,5.586,7.087,7.087,0,0,1-5.242,1.89,20.639,20.639,0,0,1-7.09-1.246v5.8ZM187.145,297.5a5.434,5.434,0,0,1,1.461,3.953,6.694,6.694,0,0,1-1.4,4.555,5.447,5.447,0,0,1-7.649.043,6.8,6.8,0,0,1-1.353-4.6,5.6,5.6,0,0,1,1.375-4A5.562,5.562,0,0,1,187.145,297.5Zm32.218,15.727V307.6H204.152v5.629h15.211Zm29.21-5.672a12.814,12.814,0,0,0,2.45-7.434,8.849,8.849,0,0,0-2.879-7q-2.88-2.534-8.207-2.535a27.843,27.843,0,0,0-10.141,1.848v6.832a22.978,22.978,0,0,1,9.024-2.449q4.511,0,4.511,4.039a10.005,10.005,0,0,1-2.75,6.359q-2.749,3.265-11.429,9.926v6.016h22v-6.016H238.991v-0.086Q246.124,311.082,248.573,307.557Zm10.519-.473q0,8.766,3.137,12.633t9.6,3.867q6.466,0,9.625-3.867t3.159-12.633q0-8.765-3.159-12.633t-9.625-3.867q-6.466,0-9.56,3.867Q259.092,298.319,259.092,307.084Zm7.606,0.022q0-5.994,1.246-8.422a4.1,4.1,0,0,1,3.888-2.428,4.15,4.15,0,0,1,3.911,2.428q1.266,2.428,1.267,8.422t-1.267,8.4a4.151,4.151,0,0,1-3.911,2.406,4.018,4.018,0,0,1-3.845-2.406Q266.7,313.1,266.7,307.106Zm45.538,0.451a12.813,12.813,0,0,0,2.449-7.434,8.849,8.849,0,0,0-2.879-7q-2.878-2.534-8.207-2.535a27.834,27.834,0,0,0-10.14,1.848v6.832a22.978,22.978,0,0,1,9.023-2.449q4.512,0,4.512,4.039a10.005,10.005,0,0,1-2.75,6.359q-2.751,3.265-11.43,9.926v6.016h22v-6.016h-12.16v-0.086Q309.787,311.082,312.236,307.557ZM325.462,297.2v8.207l8.465-6.144h0.043v23.891h7.777V291.014H333.97Zm45.474-1.31a30.982,30.982,0,0,0-7.241-9.6h-6.187q9.324,9.54,9.324,21.012,0,12.075-9.324,21.055H363.7a28.453,28.453,0,0,0,7.305-9.5,26.553,26.553,0,0,0,2.621-11.559A25.811,25.811,0,0,0,370.936,295.891Z" transform="translate(-29.656 -173.969)"/>
  <path id="The_University_of_Tokyo_FSI_-_Nippon_Foundation_Research_Projec_のコピー" data-name="The University of Tokyo FSI - Nippon Foundation Research Projec のコピー" class="cls-1" d="M38.572,347.95h3.72a17.265,17.265,0,0,1,2.832.168V346.1a16.885,16.885,0,0,1-2.832.168H32.931A16.925,16.925,0,0,1,30.2,346.1v2.016a17.252,17.252,0,0,1,2.76-.168H36.7V361.8a14.309,14.309,0,0,1-.192,2.712h2.256a14.8,14.8,0,0,1-.192-2.712V347.95Zm12.5,16.561a19.339,19.339,0,0,1-.168-2.712v-4.608a5.571,5.571,0,0,1,1.2-2.52,4.155,4.155,0,0,1,3.384-1.753c1.872,0,2.9,1.129,2.9,3.217V361.8a16.794,16.794,0,0,1-.168,2.712h2.16a18.1,18.1,0,0,1-.168-2.688V355.8a4.108,4.108,0,0,0-4.488-4.465,5.153,5.153,0,0,0-3.6,1.3,5.445,5.445,0,0,0-1.32,1.633,8.208,8.208,0,0,0,.072-1.2v-4.056a14.9,14.9,0,0,1,.192-2.736H48.939a17.6,17.6,0,0,1,.168,2.712V361.8a17.394,17.394,0,0,1-.168,2.712h2.136Zm25.8-6.192c-0.048-.648-0.144-1.584-0.168-1.848a5.674,5.674,0,0,0-5.808-5.209c-3.6,0-5.953,2.689-5.953,6.793,0,4.152,2.376,6.792,6.144,6.792a5.994,5.994,0,0,0,4.344-1.68,5.74,5.74,0,0,0,1.32-1.992l-1.68-.672a3.923,3.923,0,0,1-3.96,2.808,4.016,4.016,0,0,1-3.384-1.632,5.437,5.437,0,0,1-.96-3.36h10.1Zm-10.033-1.512a5.02,5.02,0,0,1,.6-1.944,3.756,3.756,0,0,1,3.408-2.089,3.89,3.89,0,0,1,2.832,1.081,4.381,4.381,0,0,1,1.272,2.952H66.843Zm37.2-10.537a15.027,15.027,0,0,1,.192,2.76v8.785a5.993,5.993,0,0,1-1.2,3.816,5.367,5.367,0,0,1-4.2,1.608c-3.432,0-5.4-1.968-5.4-5.424V349.03a14.064,14.064,0,0,1,.192-2.76H91.37a14.862,14.862,0,0,1,.192,2.76v8.857a7.077,7.077,0,0,0,1.776,5.064,7.346,7.346,0,0,0,5.473,1.944,7.5,7.5,0,0,0,5.448-1.9,7.168,7.168,0,0,0,1.849-5.112v-8.9a14.471,14.471,0,0,1,.192-2.712h-2.257Zm9.719,18.241a19.355,19.355,0,0,1-.168-2.712v-4.632a5.133,5.133,0,0,1,1.105-2.376,4.179,4.179,0,0,1,3.432-1.9c1.9,0,2.928,1.153,2.928,3.313V361.8a19.355,19.355,0,0,1-.168,2.712h2.16a16.279,16.279,0,0,1-.168-2.688V355.9a4.9,4.9,0,0,0-.672-2.761,4.333,4.333,0,0,0-3.84-1.8,5.215,5.215,0,0,0-4.849,2.9,6.443,6.443,0,0,0,.072-1.033v-1.632H111.6a16.216,16.216,0,0,1,.192,2.713V361.8a15.312,15.312,0,0,1-.192,2.712h2.16ZM128.21,346.27v2.136h2.328V346.27H128.21Zm0.072,5.3a17.6,17.6,0,0,1,.168,2.713V361.8a20.827,20.827,0,0,1-.168,2.712h2.16a18.9,18.9,0,0,1-.168-2.712v-7.512a17.2,17.2,0,0,1,.168-2.713h-2.16Zm6.024,0c0.5,1.056.744,1.584,1.2,2.641l3.336,8.088a14.423,14.423,0,0,1,.792,2.208h1.9a11.518,11.518,0,0,1,.769-2.208l3.36-8.088a27.281,27.281,0,0,1,1.176-2.641h-2.256a11.087,11.087,0,0,1-.72,2.353l-2.737,7.08c-0.216.528-.36,0.936-0.552,1.536-0.144-.48-0.408-1.248-0.528-1.56l-2.736-7.056a12.761,12.761,0,0,1-.744-2.353h-2.256Zm27.625,6.745c-0.048-.648-0.144-1.584-0.168-1.848a5.675,5.675,0,0,0-5.809-5.209c-3.6,0-5.952,2.689-5.952,6.793,0,4.152,2.376,6.792,6.144,6.792a6,6,0,0,0,4.345-1.68,5.738,5.738,0,0,0,1.32-1.992l-1.68-.672a3.924,3.924,0,0,1-3.961,2.808,4.015,4.015,0,0,1-3.384-1.632,5.438,5.438,0,0,1-.96-3.36h10.105ZM151.9,356.807a5.021,5.021,0,0,1,.6-1.944,3.756,3.756,0,0,1,3.408-2.089,3.89,3.89,0,0,1,2.832,1.081,4.378,4.378,0,0,1,1.273,2.952H151.9Zm22.92-5.233a11.021,11.021,0,0,0-2.136-.216,4.784,4.784,0,0,0-2.88.84,4.2,4.2,0,0,0-1.32,1.465,7.009,7.009,0,0,0,.024-0.721v-1.368h-1.992a17.4,17.4,0,0,1,.168,2.713V361.8a21.9,21.9,0,0,1-.168,2.712h2.16a18.777,18.777,0,0,1-.168-2.688v-4.9a3.951,3.951,0,0,1,.888-2.4,3.543,3.543,0,0,1,2.952-1.465,5.693,5.693,0,0,1,1.944.36Zm3.119,9.433a4.725,4.725,0,0,0,.769,1.9c0.888,1.224,2.568,1.872,4.752,1.872,3.288,0,5.328-1.488,5.328-3.888a3.168,3.168,0,0,0-1.152-2.5c-0.72-.552-1.488-0.84-3.816-1.368a8.949,8.949,0,0,1-2.664-.816,1.475,1.475,0,0,1-.816-1.32c0-1.272,1.248-2.161,3-2.161a3.278,3.278,0,0,1,2.5.913,2.184,2.184,0,0,1,.6,1.272l1.9-.312a3.873,3.873,0,0,0-1.272-2.185,5.529,5.529,0,0,0-3.768-1.152,5.258,5.258,0,0,0-3.744,1.248,3.213,3.213,0,0,0-1.033,2.329,2.951,2.951,0,0,0,1.3,2.52,9.148,9.148,0,0,0,3.552,1.248,7.718,7.718,0,0,1,2.832.864,1.62,1.62,0,0,1,.744,1.488c0,1.416-1.32,2.3-3.408,2.3a4.063,4.063,0,0,1-2.784-.84,2.692,2.692,0,0,1-.84-1.752ZM193.3,346.27v2.136h2.328V346.27H193.3Zm0.072,5.3a17.6,17.6,0,0,1,.168,2.713V361.8a20.827,20.827,0,0,1-.168,2.712h2.16a18.9,18.9,0,0,1-.168-2.712v-7.512a17.2,17.2,0,0,1,.168-2.713h-2.16ZM202.345,348a18.21,18.21,0,0,1,.168,2.664v0.912h-0.96a10.88,10.88,0,0,1-2.16-.144v1.824a16.058,16.058,0,0,1,2.16-.144h0.96V361.7a3.046,3.046,0,0,0,.672,2.3,3.286,3.286,0,0,0,2.352.744,6.463,6.463,0,0,0,2.713-.552l-0.528-1.68a3.328,3.328,0,0,1-1.9.624,1.625,1.625,0,0,1-1.176-.408,1.732,1.732,0,0,1-.312-1.272V353.11h1.152a14.426,14.426,0,0,1,2.449.144V351.43a14.763,14.763,0,0,1-2.449.144h-1.152v-0.912a17.351,17.351,0,0,1,.168-2.664h-2.16Zm13.944,16.129-1.1,2.641a1.859,1.859,0,0,1-1.776,1.32,3.156,3.156,0,0,1-1.464-.408l-0.5,1.776a9.244,9.244,0,0,0,1.968.264,3.27,3.27,0,0,0,3.384-2.232l5.377-13.105c0.624-1.513,1.032-2.449,1.176-2.809h-2.232a11.362,11.362,0,0,1-.792,2.545l-3.1,8.064-3.48-8.064a13.323,13.323,0,0,1-.816-2.545h-2.352c0.24,0.432.24,0.432,1.32,2.809Zm26.472,0.7c3.864,0,6.36-2.688,6.36-6.792,0-4.128-2.472-6.769-6.384-6.769s-6.409,2.641-6.409,6.793S238.825,364.823,242.761,364.823Zm0.024-12.049c2.76,0,4.488,2.017,4.488,5.257s-1.728,5.232-4.536,5.232-4.56-1.992-4.56-5.256C238.177,354.767,239.929,352.774,242.785,352.774Zm12.672,0.336V361.8a19.355,19.355,0,0,1-.168,2.712h2.16a17.9,17.9,0,0,1-.168-2.688V353.11h1.2a15.3,15.3,0,0,1,2.544.144V351.43a16.912,16.912,0,0,1-2.544.144h-1.2v-1.32a3.435,3.435,0,0,1,.36-2.016,1.89,1.89,0,0,1,1.632-.648,3.674,3.674,0,0,1,1.992.552l0.5-1.608a6.568,6.568,0,0,0-2.544-.48,3.759,3.759,0,0,0-3.024,1.176,4.247,4.247,0,0,0-.744,2.928v1.416h-0.985a13.6,13.6,0,0,1-2.184-.144v1.824a15.643,15.643,0,0,1,2.184-.144h0.985Zm26.88-5.16h3.72a17.261,17.261,0,0,1,2.832.168V346.1a16.881,16.881,0,0,1-2.832.168H276.7a16.924,16.924,0,0,1-2.736-.168v2.016a17.251,17.251,0,0,1,2.76-.168h3.744V361.8a14.309,14.309,0,0,1-.192,2.712h2.257a14.8,14.8,0,0,1-.192-2.712V347.95Zm16.2,16.873c3.865,0,6.361-2.688,6.361-6.792,0-4.128-2.472-6.769-6.385-6.769s-6.408,2.641-6.408,6.793S294.6,364.823,298.536,364.823Zm0.024-12.049c2.76,0,4.489,2.017,4.489,5.257s-1.729,5.232-4.537,5.232-4.56-1.992-4.56-5.256C293.952,354.767,295.7,352.774,298.56,352.774Zm10.944-6.5a17.394,17.394,0,0,1,.168,2.712V361.8a17.808,17.808,0,0,1-.168,2.712h2.136a17.9,17.9,0,0,1-.168-2.688v-2.016l2.04-1.944,3.192,4.368a10.253,10.253,0,0,1,1.512,2.28h2.737a22.125,22.125,0,0,1-2.088-2.52l-4.057-5.232,3.337-3.1a4.979,4.979,0,0,1,.384-0.385c0.336-.336.624-0.6,0.864-0.816,0.648-.576.648-0.576,0.984-0.888H317.52a10.4,10.4,0,0,1-1.7,1.9l-4.344,4.2v-8.689a17.192,17.192,0,0,1,.168-2.712H309.5Zm19.848,17.857-1.1,2.641a1.859,1.859,0,0,1-1.776,1.32,3.156,3.156,0,0,1-1.464-.408l-0.5,1.776a9.244,9.244,0,0,0,1.968.264,3.27,3.27,0,0,0,3.384-2.232l5.377-13.105c0.624-1.513,1.032-2.449,1.176-2.809h-2.233a11.362,11.362,0,0,1-.792,2.545l-3.1,8.064-3.48-8.064a13.323,13.323,0,0,1-.816-2.545H323.64c0.24,0.432.24,0.432,1.32,2.809Zm16.68,0.7c3.864,0,6.36-2.688,6.36-6.792,0-4.128-2.472-6.769-6.384-6.769s-6.409,2.641-6.409,6.793S342.1,364.823,346.032,364.823Zm0.024-12.049c2.76,0,4.488,2.017,4.488,5.257s-1.728,5.232-4.536,5.232-4.561-1.992-4.561-5.256C341.447,354.767,343.2,352.774,346.056,352.774Zm22.967,3.073h5.617a16.729,16.729,0,0,1,2.736.168V354a18.358,18.358,0,0,1-2.736.168h-5.617v-6.193h6.913a16.86,16.86,0,0,1,2.76.168V346.1a18.7,18.7,0,0,1-2.76.168h-6.361c-1.152,0-1.8-.024-2.64-0.072a16.7,16.7,0,0,1,.192,2.736V361.7a15.093,15.093,0,0,1-.192,2.808h2.28a15.093,15.093,0,0,1-.192-2.808v-5.856Zm26.713-5.137a5.543,5.543,0,0,0-1.056-2.544,6.326,6.326,0,0,0-5.305-2.208c-3.72,0-6.144,1.944-6.144,4.968a4.1,4.1,0,0,0,2.232,3.793,10.885,10.885,0,0,0,3.264,1.1c2.905,0.648,3.169.72,3.961,1.176a2.742,2.742,0,0,1,1.392,2.568c0,2.232-1.728,3.576-4.585,3.576a4.859,4.859,0,0,1-4.008-1.656,3.738,3.738,0,0,1-.744-2.376l-2.088.264a6.184,6.184,0,0,0,1.128,3.168c1.1,1.488,3.1,2.28,5.784,2.28,4.129,0,6.457-1.92,6.457-5.3,0-2.784-1.536-4.248-5.376-5.064a17.57,17.57,0,0,1-3.433-.864,2.827,2.827,0,0,1-2.088-2.713c0-1.944,1.728-3.264,4.2-3.264a4.453,4.453,0,0,1,3.553,1.392,3.919,3.919,0,0,1,.84,1.992Zm5.3-4.44a14.36,14.36,0,0,1,.192,2.688v12.865a14.524,14.524,0,0,1-.192,2.688h2.28a14.864,14.864,0,0,1-.216-2.688V348.958a15.053,15.053,0,0,1,.216-2.688h-2.28Zm16.391,12.265a14.17,14.17,0,0,1,2.184-.12h2.857a14.128,14.128,0,0,1,2.208.12v-2.016a13.943,13.943,0,0,1-2.208.12h-2.857a13.8,13.8,0,0,1-2.184-.12v2.016Zm21.408-12.265a15.03,15.03,0,0,1,.192,2.688v12.7a15.329,15.329,0,0,1-.192,2.856h2.232a15.329,15.329,0,0,1-.192-2.856V351.406c0-.624-0.048-1.8-0.144-2.928,0.336,0.648,1.128,2.016,1.32,2.3l7.705,11.569a16.234,16.234,0,0,1,1.248,2.16h2.616a13.723,13.723,0,0,1-.192-2.688V349.03a15.027,15.027,0,0,1,.192-2.76h-2.232a15.194,15.194,0,0,1,.192,2.76v10.177c0,0.216.048,1.272,0.144,3.192-0.576-1.032-1.3-2.208-1.56-2.616l-7.585-11.353a12.516,12.516,0,0,1-1.224-2.16h-2.52Zm20.159,0v2.136h2.329V346.27H459Zm0.072,5.3a17.467,17.467,0,0,1,.169,2.713V361.8a20.656,20.656,0,0,1-.169,2.712h2.161a18.9,18.9,0,0,1-.168-2.712v-7.512a17.2,17.2,0,0,1,.168-2.713h-2.161Zm9.576,17.978a18.233,18.233,0,0,1-.168-2.712v-2.977a13.4,13.4,0,0,0-.1-1.68,5.722,5.722,0,0,0,4.945,2.544c3.6,0,5.9-2.616,5.9-6.7,0-4.176-2.256-6.7-5.952-6.7a5.49,5.49,0,0,0-4.9,2.593,7.93,7.93,0,0,0,.072-0.985v-1.368h-1.92a18.924,18.924,0,0,1,.168,2.761v12.529a19.716,19.716,0,0,1-.168,2.688h2.112Zm4.513-6.385a4.73,4.73,0,0,1-3.288-1.272,5.417,5.417,0,0,1-1.369-3.84c0-3.1,1.873-5.161,4.633-5.161,2.688,0,4.224,1.873,4.224,5.137C477.358,361.223,475.774,363.167,473.158,363.167Zm12.815,6.385a18.233,18.233,0,0,1-.168-2.712v-2.977a13.4,13.4,0,0,0-.1-1.68,5.719,5.719,0,0,0,4.945,2.544c3.6,0,5.9-2.616,5.9-6.7,0-4.176-2.256-6.7-5.952-6.7a5.487,5.487,0,0,0-4.9,2.593,7.93,7.93,0,0,0,.072-0.985v-1.368h-1.92a18.924,18.924,0,0,1,.168,2.761v12.529a19.716,19.716,0,0,1-.168,2.688h2.112Zm4.513-6.385A4.731,4.731,0,0,1,487.2,361.9a5.421,5.421,0,0,1-1.368-3.84c0-3.1,1.872-5.161,4.633-5.161,2.688,0,4.224,1.873,4.224,5.137C494.686,361.223,493.1,363.167,490.486,363.167Zm16.535,1.656c3.865,0,6.361-2.688,6.361-6.792,0-4.128-2.472-6.769-6.385-6.769s-6.408,2.641-6.408,6.793S503.085,364.823,507.021,364.823Zm0.024-12.049c2.76,0,4.489,2.017,4.489,5.257s-1.729,5.232-4.537,5.232-4.56-1.992-4.56-5.256C502.437,354.767,504.189,352.774,507.045,352.774Zm13.1,11.737a19.355,19.355,0,0,1-.168-2.712v-4.632a5.141,5.141,0,0,1,1.1-2.376,4.179,4.179,0,0,1,3.432-1.9c1.9,0,2.929,1.153,2.929,3.313V361.8a19.349,19.349,0,0,1-.169,2.712h2.161a16.279,16.279,0,0,1-.168-2.688V355.9a4.9,4.9,0,0,0-.672-2.761,4.335,4.335,0,0,0-3.841-1.8,5.212,5.212,0,0,0-4.848,2.9,6.443,6.443,0,0,0,.072-1.033v-1.632h-1.992a16.216,16.216,0,0,1,.192,2.713V361.8a15.312,15.312,0,0,1-.192,2.712h2.16Zm26.5-8.664h5.616a16.729,16.729,0,0,1,2.736.168V354a18.358,18.358,0,0,1-2.736.168h-5.616v-6.193h6.912a16.86,16.86,0,0,1,2.76.168V346.1a18.7,18.7,0,0,1-2.76.168H547.2c-1.152,0-1.8-.024-2.641-0.072a16.7,16.7,0,0,1,.192,2.736V361.7a15.093,15.093,0,0,1-.192,2.808h2.281a15.093,15.093,0,0,1-.192-2.808v-5.856Zm19.848,8.976c3.864,0,6.36-2.688,6.36-6.792,0-4.128-2.472-6.769-6.384-6.769s-6.409,2.641-6.409,6.793S562.556,364.823,566.493,364.823Zm0.024-12.049c2.76,0,4.488,2.017,4.488,5.257s-1.728,5.232-4.536,5.232-4.561-1.992-4.561-5.256C561.908,354.767,563.66,352.774,566.517,352.774Zm20.376,11.737h1.992a16.212,16.212,0,0,1-.192-2.712v-7.512a18.024,18.024,0,0,1,.168-2.713h-2.136a18.677,18.677,0,0,1,.168,2.713v4.632a5.605,5.605,0,0,1-1.1,2.4,4.128,4.128,0,0,1-3.456,1.9c-1.873,0-2.9-1.2-2.9-3.336v-5.592a18.456,18.456,0,0,1,.168-2.713h-2.16a17.273,17.273,0,0,1,.168,2.689v5.928a5.247,5.247,0,0,0,.672,2.784,4.374,4.374,0,0,0,3.841,1.776,5.242,5.242,0,0,0,4.848-2.856,7.373,7.373,0,0,0-.072,1.056v1.56Zm9.359,0a19.355,19.355,0,0,1-.168-2.712v-4.632a5.141,5.141,0,0,1,1.1-2.376,4.181,4.181,0,0,1,3.433-1.9c1.9,0,2.928,1.153,2.928,3.313V361.8a19.355,19.355,0,0,1-.168,2.712h2.16a16.279,16.279,0,0,1-.168-2.688V355.9a4.9,4.9,0,0,0-.672-2.761,4.333,4.333,0,0,0-3.84-1.8,5.214,5.214,0,0,0-4.849,2.9,6.443,6.443,0,0,0,.072-1.033v-1.632h-1.992a16.216,16.216,0,0,1,.192,2.713V361.8a15.312,15.312,0,0,1-.192,2.712h2.16Zm24.625,0h1.92a18.7,18.7,0,0,1-.168-2.76V348.982a19.59,19.59,0,0,1,.168-2.712h-2.112a18.794,18.794,0,0,1,.168,2.736v3.216a7.262,7.262,0,0,0,.072,1.272l0.024,0.361a5.509,5.509,0,0,0-4.921-2.545c-3.6,0-5.9,2.617-5.9,6.721,0,4.176,2.256,6.72,5.952,6.72a5.352,5.352,0,0,0,4.873-2.592,10.619,10.619,0,0,0-.072,1.176v1.176ZM616.22,352.87a4.627,4.627,0,0,1,3.265,1.273,5.308,5.308,0,0,1,1.344,3.816c0,3.168-1.8,5.208-4.609,5.208a3.966,3.966,0,0,1-3.216-1.44,6.276,6.276,0,0,1-.984-3.744C612.02,354.791,613.6,352.87,616.22,352.87Zm20.353,11.641h1.944a15.346,15.346,0,0,1-.192-2.64v-6.744c0-2.593-1.632-3.937-4.8-3.937a6.044,6.044,0,0,0-4.224,1.368,4.753,4.753,0,0,0-1.344,2.137l1.872,0.408a3.373,3.373,0,0,1,.744-1.392,3.932,3.932,0,0,1,2.976-1.033c1.993,0,3.025.84,3.025,2.473v1.392a19.6,19.6,0,0,0-5.521.624c-2.232.624-3.432,2.016-3.432,3.936,0,2.28,1.608,3.648,4.248,3.648a7.084,7.084,0,0,0,2.5-.48,6.248,6.248,0,0,0,2.209-1.464v1.7Zm0-4.992a2.616,2.616,0,0,1-.744,2.064,5.43,5.43,0,0,1-3.841,1.7c-1.56,0-2.544-.84-2.544-2.16a2.549,2.549,0,0,1,1.824-2.472c1.08-.456,2.448-0.624,5.3-0.7v1.56ZM645.14,348a18.21,18.21,0,0,1,.168,2.664v0.912h-0.96a10.88,10.88,0,0,1-2.16-.144v1.824a16.058,16.058,0,0,1,2.16-.144h0.96V361.7a3.046,3.046,0,0,0,.672,2.3,3.286,3.286,0,0,0,2.352.744,6.466,6.466,0,0,0,2.713-.552l-0.528-1.68a3.33,3.33,0,0,1-1.9.624,1.625,1.625,0,0,1-1.176-.408,1.732,1.732,0,0,1-.312-1.272V353.11h1.152a14.433,14.433,0,0,1,2.449.144V351.43a14.77,14.77,0,0,1-2.449.144h-1.152v-0.912A17.351,17.351,0,0,1,647.3,348h-2.16Zm9.672-1.728v2.136h2.328V346.27h-2.328Zm0.072,5.3a17.6,17.6,0,0,1,.168,2.713V361.8a20.827,20.827,0,0,1-.168,2.712h2.16a18.9,18.9,0,0,1-.168-2.712v-7.512a17.2,17.2,0,0,1,.168-2.713h-2.16Zm13.3,13.249c3.864,0,6.361-2.688,6.361-6.792,0-4.128-2.473-6.769-6.385-6.769s-6.408,2.641-6.408,6.793S664.244,364.823,668.18,364.823Zm0.024-12.049c2.76,0,4.489,2.017,4.489,5.257s-1.729,5.232-4.537,5.232-4.56-1.992-4.56-5.256C663.6,354.767,665.348,352.774,668.2,352.774Zm13.1,11.737a19.355,19.355,0,0,1-.168-2.712v-4.632a5.141,5.141,0,0,1,1.1-2.376,4.179,4.179,0,0,1,3.432-1.9c1.9,0,2.928,1.153,2.928,3.313V361.8a19.355,19.355,0,0,1-.168,2.712H690.6a16.279,16.279,0,0,1-.168-2.688V355.9a4.9,4.9,0,0,0-.672-2.761,4.336,4.336,0,0,0-3.841-1.8,5.212,5.212,0,0,0-4.848,2.9,6.443,6.443,0,0,0,.072-1.033v-1.632h-1.992a16.216,16.216,0,0,1,.192,2.713V361.8a15.312,15.312,0,0,1-.192,2.712h2.16Zm-634.911,31a22.015,22.015,0,0,1-1.08-2.232c-0.744-1.656-1.32-2.9-1.9-4.032-0.864-1.7-1.464-2.352-2.448-2.64a4.935,4.935,0,0,0,2.592-1.2A4.334,4.334,0,0,0,45,381.878c0-2.976-1.92-4.608-5.4-4.608H34.323c-1.1,0-1.776-.024-2.616-0.072a17.188,17.188,0,0,1,.192,2.76v12.865a14.524,14.524,0,0,1-.192,2.688h2.232a14.471,14.471,0,0,1-.192-2.712v-5.616h4.44c1.92,0,2.856.936,4.248,4.224a16.731,16.731,0,0,1,1.416,4.1H46.4Zm-12.649-9.984v-6.6H39.58c2.28,0,3.48,1.1,3.48,3.144a3.167,3.167,0,0,1-.912,2.424,3.829,3.829,0,0,1-2.712,1.033H33.747Zm28.369,3.792c-0.048-.648-0.144-1.584-0.168-1.848a5.674,5.674,0,0,0-5.808-5.209c-3.6,0-5.953,2.689-5.953,6.793,0,4.152,2.376,6.792,6.145,6.792a5.994,5.994,0,0,0,4.344-1.68A5.738,5.738,0,0,0,62,392.175l-1.68-.672a3.923,3.923,0,0,1-3.96,2.808,4.016,4.016,0,0,1-3.384-1.632,5.438,5.438,0,0,1-.96-3.36h10.1Zm-10.033-1.512a5.023,5.023,0,0,1,.6-1.944,3.756,3.756,0,0,1,3.408-2.089,3.89,3.89,0,0,1,2.832,1.081,4.381,4.381,0,0,1,1.272,2.952H52.083Zm13.92,4.2a4.739,4.739,0,0,0,.768,1.9c0.888,1.224,2.568,1.872,4.752,1.872,3.288,0,5.329-1.488,5.329-3.888a3.168,3.168,0,0,0-1.152-2.5c-0.72-.552-1.488-0.84-3.816-1.368a8.95,8.95,0,0,1-2.664-.816,1.475,1.475,0,0,1-.816-1.32c0-1.272,1.248-2.161,3-2.161a3.278,3.278,0,0,1,2.5.913,2.184,2.184,0,0,1,.6,1.272l1.9-.312a3.873,3.873,0,0,0-1.272-2.185,5.529,5.529,0,0,0-3.768-1.152,5.258,5.258,0,0,0-3.744,1.248,3.212,3.212,0,0,0-1.032,2.329,2.95,2.95,0,0,0,1.3,2.52,9.148,9.148,0,0,0,3.552,1.248,7.718,7.718,0,0,1,2.832.864A1.62,1.62,0,0,1,75,391.959c0,1.416-1.32,2.3-3.408,2.3a4.063,4.063,0,0,1-2.784-.84,2.691,2.691,0,0,1-.84-1.752Zm26.713-2.688c-0.048-.648-0.144-1.584-0.168-1.848a5.674,5.674,0,0,0-5.809-5.209c-3.6,0-5.953,2.689-5.953,6.793,0,4.152,2.376,6.792,6.145,6.792a5.994,5.994,0,0,0,4.344-1.68,5.737,5.737,0,0,0,1.32-1.992l-1.68-.672a3.923,3.923,0,0,1-3.96,2.808,4.015,4.015,0,0,1-3.384-1.632,5.437,5.437,0,0,1-.96-3.36h10.1Zm-10.033-1.512a5.021,5.021,0,0,1,.6-1.944,3.756,3.756,0,0,1,3.408-2.089,3.89,3.89,0,0,1,2.832,1.081,4.381,4.381,0,0,1,1.272,2.952H82.683Zm23.16,7.7h1.945a15.346,15.346,0,0,1-.192-2.64v-6.744c0-2.593-1.633-3.937-4.8-3.937a6.044,6.044,0,0,0-4.224,1.368,4.753,4.753,0,0,0-1.344,2.137L99.1,386.1a3.373,3.373,0,0,1,.744-1.392,3.933,3.933,0,0,1,2.976-1.033c1.992,0,3.024.84,3.024,2.473v1.392a19.6,19.6,0,0,0-5.52.624c-2.232.624-3.432,2.016-3.432,3.936,0,2.28,1.608,3.648,4.248,3.648a7.084,7.084,0,0,0,2.5-.48,6.254,6.254,0,0,0,2.208-1.464v1.7Zm0-4.992a2.616,2.616,0,0,1-.744,2.064,5.426,5.426,0,0,1-3.84,1.7c-1.56,0-2.544-.84-2.544-2.16a2.549,2.549,0,0,1,1.824-2.472c1.08-.456,2.448-0.624,5.3-0.7v1.56Zm15.36-7.945a11.021,11.021,0,0,0-2.136-.216,4.784,4.784,0,0,0-2.88.84,4.2,4.2,0,0,0-1.32,1.465,7.009,7.009,0,0,0,.024-0.721v-1.368H112.9a17.4,17.4,0,0,1,.168,2.713V392.8a21.9,21.9,0,0,1-.168,2.712h2.16a18.777,18.777,0,0,1-.168-2.688v-4.9a3.951,3.951,0,0,1,.888-2.4,3.543,3.543,0,0,1,2.952-1.465,5.693,5.693,0,0,1,1.944.36Zm14.76,3.409a6.513,6.513,0,0,0-.84-1.537,5.439,5.439,0,0,0-4.632-2.208c-3.672,0-6.073,2.713-6.073,6.865,0,4.1,2.425,6.72,6.193,6.72a5.527,5.527,0,0,0,4.536-2.016,6.581,6.581,0,0,0,.984-1.848l-1.8-.48a3.9,3.9,0,0,1-.528,1.224,3.547,3.547,0,0,1-3.12,1.536c-2.688,0-4.416-2.016-4.416-5.184,0-3.216,1.68-5.281,4.32-5.281,1.776,0,2.928.889,3.624,2.761Zm6.863,9.528a19.355,19.355,0,0,1-.168-2.712v-4.608a5.57,5.57,0,0,1,1.2-2.52,4.157,4.157,0,0,1,3.385-1.753c1.872,0,2.9,1.129,2.9,3.217V392.8a16.794,16.794,0,0,1-.168,2.712h2.16a18.111,18.111,0,0,1-.168-2.688V386.8a4.108,4.108,0,0,0-4.488-4.465,5.156,5.156,0,0,0-3.6,1.3,5.443,5.443,0,0,0-1.32,1.633,8.208,8.208,0,0,0,.072-1.2v-4.056a14.913,14.913,0,0,1,.192-2.736H140.69a17.6,17.6,0,0,1,.168,2.712V392.8a17.394,17.394,0,0,1-.168,2.712h2.136Zm26.664,0a14.635,14.635,0,0,1-.192-2.712v-4.728h5.352c3.745,0,5.905-2.04,5.905-5.569,0-3.336-2.088-5.232-5.785-5.232h-4.9c-1.1,0-1.776-.024-2.64-0.072a17.688,17.688,0,0,1,.192,2.736v12.889a14.859,14.859,0,0,1-.192,2.688h2.256Zm-0.192-9.1v-7.489h5.352c2.593,0,3.985,1.272,3.985,3.672,0,2.449-1.44,3.817-3.985,3.817H169.3Zm23.784-3.841a11.021,11.021,0,0,0-2.136-.216,4.784,4.784,0,0,0-2.88.84,4.2,4.2,0,0,0-1.32,1.465,7.009,7.009,0,0,0,.024-0.721v-1.368h-1.993a17.4,17.4,0,0,1,.168,2.713V392.8a21.9,21.9,0,0,1-.168,2.712h2.161a18.777,18.777,0,0,1-.168-2.688v-4.9a3.951,3.951,0,0,1,.888-2.4,3.543,3.543,0,0,1,2.952-1.465,5.693,5.693,0,0,1,1.944.36Zm9.648,13.249c3.864,0,6.36-2.688,6.36-6.792,0-4.128-2.472-6.769-6.384-6.769s-6.409,2.641-6.409,6.793S198.793,395.823,202.73,395.823Zm0.024-12.049c2.76,0,4.488,2.017,4.488,5.257s-1.728,5.232-4.536,5.232-4.561-1.992-4.561-5.256C198.145,385.767,199.9,383.774,202.754,383.774Zm11.519-6.5v2.16H216.6v-2.16h-2.329Zm0.072,5.3a17.4,17.4,0,0,1,.168,2.713v11.641c0,1.632-.432,2.208-1.656,2.208a2.234,2.234,0,0,1-2.016-1.248l-1.656,1.08a4.127,4.127,0,0,0,3.576,1.752c2.5,0,3.576-1.1,3.576-3.648V385.287a17.2,17.2,0,0,1,.168-2.713h-2.16Zm18.841,6.745c-0.048-.648-0.144-1.584-0.168-1.848a5.674,5.674,0,0,0-5.808-5.209c-3.6,0-5.953,2.689-5.953,6.793,0,4.152,2.376,6.792,6.145,6.792a5.993,5.993,0,0,0,4.344-1.68,5.738,5.738,0,0,0,1.32-1.992l-1.68-.672a3.922,3.922,0,0,1-3.96,2.808,4.017,4.017,0,0,1-3.385-1.632,5.438,5.438,0,0,1-.96-3.36h10.105Zm-10.033-1.512a5.021,5.021,0,0,1,.6-1.944,3.757,3.757,0,0,1,3.409-2.089,3.89,3.89,0,0,1,2.832,1.081,4.381,4.381,0,0,1,1.272,2.952h-8.113Zm25.561-1.824a6.513,6.513,0,0,0-.84-1.537,5.439,5.439,0,0,0-4.632-2.208c-3.673,0-6.073,2.713-6.073,6.865,0,4.1,2.424,6.72,6.193,6.72a5.527,5.527,0,0,0,4.536-2.016,6.581,6.581,0,0,0,.984-1.848l-1.8-.48a3.9,3.9,0,0,1-.528,1.224,3.547,3.547,0,0,1-3.12,1.536c-2.689,0-4.417-2.016-4.417-5.184,0-3.216,1.68-5.281,4.321-5.281,1.776,0,2.928.889,3.624,2.761ZM254.953,379a18.21,18.21,0,0,1,.168,2.664v0.912h-0.96a10.88,10.88,0,0,1-2.16-.144v1.824a16.058,16.058,0,0,1,2.16-.144h0.96V392.7a3.046,3.046,0,0,0,.672,2.3,3.286,3.286,0,0,0,2.352.744,6.466,6.466,0,0,0,2.713-.552l-0.529-1.68a3.325,3.325,0,0,1-1.9.624,1.625,1.625,0,0,1-1.176-.408,1.732,1.732,0,0,1-.312-1.272V384.11H258.1a14.414,14.414,0,0,1,2.448.144V382.43a14.75,14.75,0,0,1-2.448.144h-1.152v-0.912a17.351,17.351,0,0,1,.168-2.664h-2.16Zm25.32,16.825c3.864,0,6.361-2.688,6.361-6.792,0-4.128-2.473-6.769-6.385-6.769s-6.408,2.641-6.408,6.793S276.337,395.823,280.273,395.823Zm0.024-12.049c2.76,0,4.489,2.017,4.489,5.257s-1.729,5.232-4.537,5.232-4.56-1.992-4.56-5.256C275.689,385.767,277.441,383.774,280.3,383.774Zm13.1,11.737a19.355,19.355,0,0,1-.168-2.712v-4.632a5.141,5.141,0,0,1,1.1-2.376,4.179,4.179,0,0,1,3.432-1.9c1.9,0,2.928,1.153,2.928,3.313V392.8a19.355,19.355,0,0,1-.168,2.712h2.161a16.279,16.279,0,0,1-.168-2.688V386.9a4.9,4.9,0,0,0-.672-2.761,4.335,4.335,0,0,0-3.841-1.8,5.212,5.212,0,0,0-4.848,2.9,6.443,6.443,0,0,0,.072-1.033v-1.632h-1.992a16.216,16.216,0,0,1,.192,2.713V392.8a15.312,15.312,0,0,1-.192,2.712h2.16Zm32.136-2.52a12.394,12.394,0,0,1,.888,2.52h1.7a13.6,13.6,0,0,1,.912-2.5l4.9-10.777a15.8,15.8,0,0,0,1.032-2.928c-0.1.984-.168,2.28-0.168,2.952v10.417a16.053,16.053,0,0,1-.192,2.832h2.184a15.21,15.21,0,0,1-.192-2.832V380.126a16.344,16.344,0,0,1,.192-2.856h-2.76a12.176,12.176,0,0,1-.816,2.376l-5.905,13.225-5.928-13.225a11.494,11.494,0,0,1-.792-2.376h-2.785a16.52,16.52,0,0,1,.192,2.856v12.553a15.88,15.88,0,0,1-.192,2.832h2.185a15.21,15.21,0,0,1-.192-2.832V382.406c0-.576-0.1-2.064-0.168-3.1a22.127,22.127,0,0,0,1.08,2.976Zm25.152,2.52h1.944a15.346,15.346,0,0,1-.192-2.64v-6.744c0-2.593-1.632-3.937-4.8-3.937a6.045,6.045,0,0,0-4.225,1.368,4.753,4.753,0,0,0-1.344,2.137l1.872,0.408a3.373,3.373,0,0,1,.744-1.392,3.935,3.935,0,0,1,2.977-1.033c1.992,0,3.024.84,3.024,2.473v1.392a19.609,19.609,0,0,0-5.521.624c-2.232.624-3.432,2.016-3.432,3.936,0,2.28,1.608,3.648,4.249,3.648a7.084,7.084,0,0,0,2.5-.48,6.254,6.254,0,0,0,2.208-1.464v1.7Zm0-4.992a2.616,2.616,0,0,1-.744,2.064,5.426,5.426,0,0,1-3.84,1.7c-1.561,0-2.545-.84-2.545-2.16a2.549,2.549,0,0,1,1.824-2.472c1.081-.456,2.449-0.624,5.305-0.7v1.56Zm15.36-7.945a11.021,11.021,0,0,0-2.136-.216,4.787,4.787,0,0,0-2.881.84,4.2,4.2,0,0,0-1.32,1.465,7.009,7.009,0,0,0,.024-0.721v-1.368h-1.992a17.4,17.4,0,0,1,.168,2.713V392.8a21.9,21.9,0,0,1-.168,2.712h2.16a18.777,18.777,0,0,1-.168-2.688v-4.9a3.951,3.951,0,0,1,.888-2.4,3.545,3.545,0,0,1,2.953-1.465,5.693,5.693,0,0,1,1.944.36Zm3.791-5.3v2.136h2.328V377.27H369.84Zm0.072,5.3a17.6,17.6,0,0,1,.168,2.713V392.8a20.827,20.827,0,0,1-.168,2.712h2.16a18.9,18.9,0,0,1-.168-2.712v-7.512a17.2,17.2,0,0,1,.168-2.713h-2.16Zm9.624,12.937a19.355,19.355,0,0,1-.168-2.712v-4.632a5.141,5.141,0,0,1,1.1-2.376,4.179,4.179,0,0,1,3.432-1.9c1.9,0,2.929,1.153,2.929,3.313V392.8a19.355,19.355,0,0,1-.168,2.712h2.16a16.279,16.279,0,0,1-.168-2.688V386.9a4.9,4.9,0,0,0-.672-2.761,4.335,4.335,0,0,0-3.841-1.8,5.212,5.212,0,0,0-4.848,2.9,6.443,6.443,0,0,0,.072-1.033v-1.632h-1.992a16.216,16.216,0,0,1,.192,2.713V392.8a15.312,15.312,0,0,1-.192,2.712h2.16Zm25.8-6.192c-0.048-.648-0.144-1.584-0.168-1.848a5.675,5.675,0,0,0-5.809-5.209c-3.6,0-5.952,2.689-5.952,6.793,0,4.152,2.376,6.792,6.144,6.792a6,6,0,0,0,4.345-1.68,5.738,5.738,0,0,0,1.32-1.992l-1.681-.672a3.922,3.922,0,0,1-3.96,2.808,4.015,4.015,0,0,1-3.384-1.632,5.438,5.438,0,0,1-.96-3.36h10.1ZM395.3,387.807a5.021,5.021,0,0,1,.6-1.944,3.756,3.756,0,0,1,3.408-2.089,3.89,3.89,0,0,1,2.832,1.081,4.381,4.381,0,0,1,1.272,2.952H395.3Zm26.808,7.7a14.635,14.635,0,0,1-.192-2.712v-4.728h5.352c3.744,0,5.905-2.04,5.905-5.569,0-3.336-2.089-5.232-5.785-5.232h-4.9c-1.1,0-1.777-.024-2.641-0.072a17.688,17.688,0,0,1,.192,2.736v12.889a14.859,14.859,0,0,1-.192,2.688h2.257Zm-0.192-9.1v-7.489h5.352c2.592,0,3.984,1.272,3.984,3.672,0,2.449-1.44,3.817-3.984,3.817H421.92ZM437.4,377.27a17.268,17.268,0,0,1,.168,2.688v12.865a18.111,18.111,0,0,1-.168,2.688h2.16a19.006,19.006,0,0,1-.168-2.688V379.982a17.394,17.394,0,0,1,.168-2.712H437.4Zm15.913,18.241h1.944a15.346,15.346,0,0,1-.192-2.64v-6.744c0-2.593-1.632-3.937-4.8-3.937a6.044,6.044,0,0,0-4.224,1.368A4.753,4.753,0,0,0,444.7,385.7l1.872,0.408a3.373,3.373,0,0,1,.744-1.392,3.932,3.932,0,0,1,2.976-1.033c1.993,0,3.025.84,3.025,2.473v1.392a19.6,19.6,0,0,0-5.521.624c-2.232.624-3.432,2.016-3.432,3.936,0,2.28,1.608,3.648,4.248,3.648a7.084,7.084,0,0,0,2.5-.48,6.248,6.248,0,0,0,2.209-1.464v1.7Zm0-4.992a2.616,2.616,0,0,1-.744,2.064,5.428,5.428,0,0,1-3.841,1.7c-1.56,0-2.544-.84-2.544-2.16a2.549,2.549,0,0,1,1.824-2.472c1.08-.456,2.448-0.624,5.305-0.7v1.56Zm6.359,1.488a4.74,4.74,0,0,0,.768,1.9c0.888,1.224,2.568,1.872,4.752,1.872,3.289,0,5.329-1.488,5.329-3.888a3.168,3.168,0,0,0-1.152-2.5c-0.72-.552-1.488-0.84-3.817-1.368a8.949,8.949,0,0,1-2.664-.816,1.475,1.475,0,0,1-.816-1.32c0-1.272,1.248-2.161,3-2.161a3.281,3.281,0,0,1,2.5.913,2.184,2.184,0,0,1,.6,1.272l1.9-.312a3.873,3.873,0,0,0-1.272-2.185,5.531,5.531,0,0,0-3.769-1.152,5.258,5.258,0,0,0-3.744,1.248,3.212,3.212,0,0,0-1.032,2.329,2.95,2.95,0,0,0,1.3,2.52,9.148,9.148,0,0,0,3.552,1.248,7.725,7.725,0,0,1,2.833.864,1.62,1.62,0,0,1,.744,1.488c0,1.416-1.32,2.3-3.409,2.3a4.063,4.063,0,0,1-2.784-.84,2.692,2.692,0,0,1-.84-1.752ZM476.567,379a18.21,18.21,0,0,1,.168,2.664v0.912h-0.96a10.9,10.9,0,0,1-2.161-.144v1.824a16.084,16.084,0,0,1,2.161-.144h0.96V392.7a3.046,3.046,0,0,0,.672,2.3,3.286,3.286,0,0,0,2.352.744,6.458,6.458,0,0,0,2.712-.552l-0.528-1.68a3.325,3.325,0,0,1-1.9.624,1.625,1.625,0,0,1-1.176-.408,1.732,1.732,0,0,1-.312-1.272V384.11h1.152a14.414,14.414,0,0,1,2.448.144V382.43a14.75,14.75,0,0,1-2.448.144h-1.152v-0.912a17.351,17.351,0,0,1,.168-2.664h-2.16Zm9.672-1.728v2.136h2.328V377.27h-2.328Zm0.072,5.3a17.6,17.6,0,0,1,.168,2.713V392.8a20.827,20.827,0,0,1-.168,2.712h2.16a18.9,18.9,0,0,1-.168-2.712v-7.512a17.2,17.2,0,0,1,.168-2.713h-2.16Zm18.408,3.409a6.513,6.513,0,0,0-.84-1.537,5.439,5.439,0,0,0-4.632-2.208c-3.673,0-6.073,2.713-6.073,6.865,0,4.1,2.424,6.72,6.193,6.72a5.527,5.527,0,0,0,4.536-2.016,6.581,6.581,0,0,0,.984-1.848l-1.8-.48a3.9,3.9,0,0,1-.528,1.224,3.547,3.547,0,0,1-3.12,1.536c-2.688,0-4.417-2.016-4.417-5.184,0-3.216,1.681-5.281,4.321-5.281,1.776,0,2.928.889,3.624,2.761Zm4.031,6.024a4.74,4.74,0,0,0,.768,1.9c0.888,1.224,2.568,1.872,4.752,1.872,3.289,0,5.329-1.488,5.329-3.888a3.168,3.168,0,0,0-1.152-2.5c-0.72-.552-1.488-0.84-3.817-1.368a8.949,8.949,0,0,1-2.664-.816,1.475,1.475,0,0,1-.816-1.32c0-1.272,1.248-2.161,3-2.161a3.278,3.278,0,0,1,2.5.913,2.184,2.184,0,0,1,.6,1.272l1.9-.312a3.873,3.873,0,0,0-1.272-2.185,5.53,5.53,0,0,0-3.769-1.152,5.258,5.258,0,0,0-3.744,1.248,3.212,3.212,0,0,0-1.032,2.329,2.95,2.95,0,0,0,1.3,2.52,9.148,9.148,0,0,0,3.552,1.248,7.718,7.718,0,0,1,2.833.864,1.62,1.62,0,0,1,.744,1.488c0,1.416-1.32,2.3-3.409,2.3a4.063,4.063,0,0,1-2.784-.84,2.692,2.692,0,0,1-.84-1.752Z" transform="translate(-29.656 -173.969)"/>
</svg>
