<svg xmlns="http://www.w3.org/2000/svg" width="15.862" height="12.19" viewBox="0 0 15.862 12.19">
  <g id="グループ_231" data-name="グループ 231" transform="translate(0 -59.261)">
    <path id="パス_301" data-name="パス 301" d="M341.374,121.7l5.209,4.541a1.761,1.761,0,0,0,.077-.514v-8.636Z" transform="translate(-330.798 -56.035)" fill="#fff"/>
    <path id="パス_302" data-name="パス 302" d="M19.955,66.2a.945.945,0,0,0,.623-.234L27.5,59.926a1.758,1.758,0,0,0-1.378-.665H13.787a1.758,1.758,0,0,0-1.378.665l6.923,6.036A.945.945,0,0,0,19.955,66.2Z" transform="translate(-12.025)" fill="#fff"/>
    <path id="パス_303" data-name="パス 303" d="M0,117.087v8.636a1.762,1.762,0,0,0,.077.514L5.286,121.7Z" transform="translate(0 -56.035)" fill="#fff"/>
    <path id="パス_304" data-name="パス 304" d="M31.712,289.829a2.05,2.05,0,0,1-2.694,0l-.46-.4-5.407,4.714a1.753,1.753,0,0,0,1.045.346H36.533a1.753,1.753,0,0,0,1.045-.346l-5.407-4.714Z" transform="translate(-22.434 -223.036)" fill="#fff"/>
  </g>
</svg>
